<svg xmlns="http://www.w3.org/2000/svg" viewBox="0 0 78.53 89.85"><g id="Layer_2" data-name="Layer 2"><g id="Layer_1-2" data-name="Layer 1"><rect x="28.05" y="47.02" width="4.4" height="4.42" transform="translate(-9.1 6.92) rotate(-11.35)"/><rect x="27.18" y="42.7" width="4.4" height="4.4" transform="translate(-8.26 6.66) rotate(-11.35)"/><rect x="26.32" y="38.38" width="4.4" height="4.4" transform="translate(-7.43 6.41) rotate(-11.35)"/><rect x="25.45" y="34.07" width="4.4" height="4.4" transform="translate(-6.6 6.15) rotate(-11.35)"/><rect x="24.58" y="29.74" width="4.4" height="4.42" transform="translate(-5.76 5.9) rotate(-11.35)"/><rect x="29.81" y="78.14" width="4.4" height="4.4" transform="translate(-15.19 7.87) rotate(-11.35)"/><rect x="28.94" y="73.81" width="4.4" height="4.42" transform="translate(-14.35 7.62) rotate(-11.35)"/><rect x="28.07" y="69.49" width="4.4" height="4.4" transform="translate(-13.52 7.36) rotate(-11.35)"/><rect x="26.34" y="60.85" width="4.4" height="4.42" transform="translate(-11.85 6.85) rotate(-11.35)"/><rect x="25.47" y="56.53" width="4.4" height="4.4" transform="translate(-11.02 6.6) rotate(-11.35)"/><rect x="24.6" y="52.21" width="4.4" height="4.4" transform="translate(-10.19 6.34) rotate(-11.35)"/><rect x="23.74" y="47.88" width="4.4" height="4.42" transform="translate(-9.35 6.09) rotate(-11.35)"/><rect x="22.87" y="43.57" width="4.4" height="4.4" transform="translate(-8.52 5.83) rotate(-11.35)"/><rect x="22" y="39.25" width="4.4" height="4.4" transform="translate(-7.69 5.58) rotate(-11.35)"/><rect x="21.13" y="34.93" width="4.4" height="4.4" transform="translate(-6.85 5.32) rotate(-11.35)"/><rect x="20.27" y="30.6" width="4.4" height="4.42" transform="translate(-6.02 5.06) rotate(-11.35)"/><rect x="19.4" y="26.29" width="4.4" height="4.4" transform="translate(-5.19 4.81) rotate(-11.35)"/><rect x="26.35" y="83.33" width="4.42" height="4.4" transform="translate(-16.28 7.29) rotate(-11.35)"/><rect x="25.48" y="79.01" width="4.42" height="4.4" transform="translate(-15.44 7.04) rotate(-11.35)"/><rect x="24.61" y="74.68" width="4.42" height="4.42" transform="translate(-14.61 6.78) rotate(-11.35)"/><rect x="23.74" y="70.36" width="4.42" height="4.4" transform="translate(-13.78 6.53) rotate(-11.35)"/><rect x="22.01" y="61.72" width="4.42" height="4.42" transform="translate(-12.11 6.02) rotate(-11.35)"/><rect x="21.14" y="57.4" width="4.42" height="4.4" transform="translate(-11.28 5.76) rotate(-11.35)"/><rect x="20.27" y="53.08" width="4.42" height="4.4" transform="translate(-10.44 5.51) rotate(-11.35)"/><rect x="19.41" y="48.75" width="4.42" height="4.42" transform="translate(-9.61 5.25) rotate(-11.35)"/><rect x="18.54" y="44.44" width="4.42" height="4.4" transform="translate(-8.77 5) rotate(-11.35)"/><rect x="17.67" y="40.12" width="4.42" height="4.4" transform="translate(-7.94 4.74) rotate(-11.35)"/><rect x="16.8" y="35.8" width="4.42" height="4.4" transform="translate(-7.11 4.49) rotate(-11.35)"/><rect x="15.94" y="31.47" width="4.42" height="4.42" transform="translate(-6.27 4.23) rotate(-11.35)"/><rect x="15.07" y="27.15" width="4.42" height="4.4" transform="translate(-5.44 3.98) rotate(-11.35)"/><rect x="14.2" y="22.84" width="4.42" height="4.4" transform="translate(-4.61 3.72) rotate(-11.35)"/><rect x="22.03" y="84.19" width="4.4" height="4.4" transform="translate(-16.53 6.46) rotate(-11.35)"/><rect x="21.16" y="79.88" width="4.4" height="4.4" transform="translate(-15.7 6.21) rotate(-11.35)"/><rect x="20.29" y="75.55" width="4.4" height="4.42" transform="translate(-14.87 5.95) rotate(-11.35)"/><rect x="19.43" y="71.23" width="4.4" height="4.4" transform="translate(-14.03 5.69) rotate(-11.35)"/><rect x="17.69" y="62.58" width="4.4" height="4.42" transform="matrix(0.98, -0.2, 0.2, 0.98, -12.36, 5.18)"/><rect x="16.82" y="58.27" width="4.4" height="4.4" transform="translate(-11.53 4.93) rotate(-11.35)"/><rect x="15.96" y="53.95" width="4.4" height="4.4" transform="translate(-10.7 4.67) rotate(-11.35)"/><rect x="15.09" y="49.62" width="4.4" height="4.42" transform="translate(-9.86 4.42) rotate(-11.35)"/><rect x="14.22" y="45.3" width="4.4" height="4.4" transform="translate(-9.03 4.16) rotate(-11.35)"/><rect x="13.35" y="40.99" width="4.4" height="4.4" transform="translate(-8.2 3.91) rotate(-11.35)"/><rect x="12.49" y="36.67" width="4.4" height="4.4" transform="translate(-7.36 3.65) rotate(-11.35)"/><rect x="11.62" y="32.34" width="4.4" height="4.42" transform="translate(-6.53 3.4) rotate(-11.35)"/><rect x="10.75" y="28.02" width="4.4" height="4.4" transform="translate(-5.7 3.14) rotate(-11.35)"/><rect x="9.88" y="23.71" width="4.4" height="4.4" transform="translate(-4.86 2.89) rotate(-11.35)"/><rect x="17.71" y="85.06" width="4.4" height="4.4" transform="translate(-16.79 5.63) rotate(-11.35)"/><rect x="16.85" y="80.74" width="4.4" height="4.4" transform="translate(-15.95 5.37) rotate(-11.35)"/><rect x="15.98" y="76.41" width="4.4" height="4.42" transform="translate(-15.12 5.12) rotate(-11.35)"/><rect x="15.11" y="72.1" width="4.4" height="4.4" transform="matrix(0.98, -0.2, 0.2, 0.98, -14.29, 4.86)"/><rect x="13.37" y="63.45" width="4.4" height="4.42" transform="translate(-12.62 4.35) rotate(-11.35)"/><rect x="12.51" y="59.13" width="4.4" height="4.4" transform="translate(-11.79 4.1) rotate(-11.35)"/><rect x="11.64" y="54.82" width="4.4" height="4.4" transform="translate(-10.95 3.84) rotate(-11.35)"/><rect x="10.77" y="50.49" width="4.4" height="4.42" transform="translate(-10.12 3.58) rotate(-11.35)"/><rect x="9.9" y="46.17" width="4.4" height="4.4" transform="translate(-9.28 3.33) rotate(-11.35)"/><rect x="9.04" y="41.85" width="4.4" height="4.4" transform="translate(-8.45 3.07) rotate(-11.35)"/><rect x="8.17" y="37.54" width="4.4" height="4.4" transform="translate(-7.62 2.82) rotate(-11.35)"/><rect x="7.3" y="33.21" width="4.4" height="4.42" transform="translate(-6.79 2.56) rotate(-11.35)"/><rect x="6.43" y="28.89" width="4.4" height="4.4" transform="translate(-5.95 2.31) rotate(-11.35)"/><rect x="12.52" y="81.61" width="4.42" height="4.4" transform="matrix(0.98, -0.2, 0.2, 0.98, -16.21, 4.54)"/><rect x="11.65" y="77.28" width="4.42" height="4.42" transform="translate(-15.38 4.28) rotate(-11.35)"/><rect x="10.78" y="72.97" width="4.42" height="4.4" transform="translate(-14.54 4.03) rotate(-11.35)"/><rect x="9.04" y="64.32" width="4.42" height="4.42" transform="translate(-12.88 3.52) rotate(-11.35)"/><rect x="8.18" y="60" width="4.42" height="4.4" transform="translate(-12.04 3.26) rotate(-11.35)"/><rect x="7.31" y="55.68" width="4.42" height="4.4" transform="translate(-11.21 3.01) rotate(-11.35)"/><rect x="6.44" y="51.35" width="4.42" height="4.42" transform="translate(-10.37 2.75) rotate(-11.35)"/><rect x="5.57" y="47.04" width="4.42" height="4.4" transform="translate(-9.54 2.5) rotate(-11.35)"/><rect x="4.71" y="42.72" width="4.42" height="4.4" transform="translate(-8.71 2.24) rotate(-11.35)"/><rect x="3.84" y="38.4" width="4.42" height="4.4" transform="translate(-7.87 1.99) rotate(-11.35)"/><rect x="2.97" y="34.07" width="4.42" height="4.42" transform="translate(-7.04 1.73) rotate(-11.35)"/><rect x="2.99" y="56.55" width="4.4" height="4.4" transform="translate(-11.46 2.17) rotate(-11.35)"/><rect x="2.12" y="52.22" width="4.4" height="4.42" transform="translate(-10.63 1.92) rotate(-11.35)"/><rect x="1.26" y="47.91" width="4.4" height="4.4" transform="translate(-9.8 1.66) rotate(-11.35)"/><rect x="0.39" y="43.59" width="4.4" height="4.4" transform="translate(-8.96 1.41) rotate(-11.35)"/><rect x="46.71" y="25.62" width="4.42" height="4.4" transform="translate(16.28 73.66) rotate(-84.18)"/><rect x="47.16" y="21.23" width="4.4" height="4.4" transform="translate(21.04 70.17) rotate(-84.18)"/><rect x="47.61" y="16.85" width="4.4" height="4.4" transform="translate(25.8 66.68) rotate(-84.18)"/><rect x="48.06" y="12.47" width="4.4" height="4.4" transform="translate(30.56 63.18) rotate(-84.18)"/><rect x="48.5" y="8.09" width="4.42" height="4.4" transform="translate(35.33 59.69) rotate(-84.18)"/><rect x="47.97" y="56.76" width="4.4" height="4.4" transform="translate(-13.58 102.89) rotate(-84.18)"/><rect x="48.41" y="52.38" width="4.42" height="4.4" transform="translate(-8.81 99.4) rotate(-84.18)"/><rect x="48.86" y="47.99" width="4.4" height="4.4" transform="translate(-4.05 95.9) rotate(-84.18)"/><rect x="49.75" y="39.22" width="4.42" height="4.4" transform="translate(5.48 88.91) rotate(-84.18)"/><rect x="50.2" y="34.83" width="4.4" height="4.4" transform="translate(10.24 85.41) rotate(-84.18)"/><rect x="50.65" y="30.45" width="4.4" height="4.4" transform="translate(15 81.92) rotate(-84.18)"/><rect x="51.09" y="26.07" width="4.42" height="4.4" transform="translate(19.77 78.42) rotate(-84.18)"/><rect x="51.54" y="21.68" width="4.4" height="4.4" transform="translate(24.54 74.93) rotate(-84.18)"/><rect x="51.99" y="17.3" width="4.4" height="4.4" transform="translate(29.29 71.43) rotate(-84.18)"/><rect x="52.44" y="12.92" width="4.4" height="4.4" transform="translate(34.05 67.94) rotate(-84.18)"/><rect x="52.88" y="8.53" width="4.42" height="4.4" transform="translate(38.82 64.45) rotate(-84.18)"/><rect x="53.33" y="4.15" width="4.4" height="4.4" transform="translate(43.59 60.95) rotate(-84.18)"/><rect x="51.91" y="61.58" width="4.4" height="4.42" transform="translate(-14.84 111.15) rotate(-84.18)"/><rect x="52.35" y="57.2" width="4.4" height="4.42" transform="translate(-10.08 107.66) rotate(-84.18)"/><rect x="52.79" y="52.82" width="4.42" height="4.42" transform="translate(-5.32 104.16) rotate(-84.18)"/><rect x="53.25" y="48.43" width="4.4" height="4.42" transform="translate(-0.55 100.67) rotate(-84.18)"/><rect x="54.13" y="39.66" width="4.42" height="4.42" transform="matrix(0.1, -0.99, 0.99, 0.1, 8.98, 93.68)"/><rect x="54.59" y="35.27" width="4.4" height="4.42" transform="translate(13.74 90.18) rotate(-84.18)"/><rect x="55.04" y="30.89" width="4.4" height="4.42" transform="translate(18.5 86.69) rotate(-84.18)"/><rect x="55.48" y="26.51" width="4.42" height="4.42" transform="translate(23.27 83.19) rotate(-84.18)"/><rect x="55.93" y="22.12" width="4.4" height="4.42" transform="translate(28.03 79.69) rotate(-84.18)"/><rect x="56.38" y="17.74" width="4.4" height="4.42" transform="translate(32.79 76.2) rotate(-84.18)"/><rect x="56.82" y="13.36" width="4.4" height="4.42" transform="translate(37.55 72.71) rotate(-84.18)"/><rect x="57.26" y="8.97" width="4.42" height="4.42" transform="translate(42.32 69.21) rotate(-84.18)"/><rect x="57.72" y="4.59" width="4.4" height="4.42" transform="translate(47.08 65.71) rotate(-84.18)"/><rect x="58.16" y="0.21" width="4.4" height="4.42" transform="translate(51.84 62.22) rotate(-84.18)"/><rect x="56.29" y="62.04" width="4.4" height="4.4" transform="translate(-11.34 115.92) rotate(-84.18)"/><rect x="56.74" y="57.66" width="4.4" height="4.4" transform="translate(-6.58 112.43) rotate(-84.18)"/><rect x="57.18" y="53.27" width="4.42" height="4.4" transform="translate(-1.82 108.93) rotate(-84.18)"/><rect x="57.64" y="48.88" width="4.4" height="4.4" transform="translate(2.95 105.43) rotate(-84.18)"/><rect x="58.52" y="40.12" width="4.42" height="4.4" transform="translate(12.47 98.44) rotate(-84.18)"/><rect x="58.98" y="35.73" width="4.4" height="4.4" transform="translate(17.24 94.95) rotate(-84.18)"/><rect x="59.42" y="31.35" width="4.4" height="4.4" transform="translate(22 91.45) rotate(-84.18)"/><rect x="59.86" y="26.96" width="4.42" height="4.4" transform="translate(26.76 87.96) rotate(-84.18)"/><rect x="60.32" y="22.57" width="4.4" height="4.4" transform="translate(31.53 84.46) rotate(-84.18)"/><rect x="60.76" y="18.19" width="4.4" height="4.4" transform="translate(36.29 80.97) rotate(-84.18)"/><rect x="61.21" y="13.81" width="4.4" height="4.4" transform="translate(41.05 77.48) rotate(-84.18)"/><rect x="61.65" y="9.43" width="4.42" height="4.4" transform="translate(45.81 73.98) rotate(-84.18)"/><rect x="62.1" y="5.04" width="4.4" height="4.4" transform="translate(50.58 70.48) rotate(-84.18)"/><rect x="62.55" y="0.66" width="4.4" height="4.4" transform="translate(55.34 66.99) rotate(-84.18)"/><rect x="60.67" y="62.48" width="4.4" height="4.4" transform="translate(-7.85 120.68) rotate(-84.18)"/><rect x="61.12" y="58.1" width="4.4" height="4.4" transform="translate(-3.09 117.18) rotate(-84.18)"/><rect x="61.56" y="53.72" width="4.42" height="4.4" transform="translate(1.67 113.69) rotate(-84.18)"/><rect x="62.01" y="49.33" width="4.4" height="4.4" transform="translate(6.44 110.19) rotate(-84.18)"/><rect x="62.9" y="40.56" width="4.42" height="4.4" transform="translate(15.96 103.2) rotate(-84.18)"/><rect x="63.36" y="36.17" width="4.4" height="4.4" transform="translate(20.73 99.7) rotate(-84.18)"/><rect x="63.8" y="31.79" width="4.4" height="4.4" transform="translate(25.49 96.21) rotate(-84.18)"/><rect x="64.24" y="27.41" width="4.42" height="4.4" transform="translate(30.26 92.71) rotate(-84.18)"/><rect x="64.7" y="23.02" width="4.4" height="4.4" transform="translate(35.02 89.22) rotate(-84.18)"/><rect x="65.14" y="18.64" width="4.4" height="4.4" transform="translate(39.78 85.73) rotate(-84.18)"/><rect x="65.59" y="14.26" width="4.4" height="4.4" transform="translate(44.54 82.23) rotate(-84.18)"/><rect x="66.03" y="9.87" width="4.42" height="4.4" transform="translate(49.31 78.74) rotate(-84.18)"/><rect x="66.48" y="5.49" width="4.4" height="4.4" transform="translate(54.07 75.24) rotate(-84.18)"/><rect x="65.51" y="58.54" width="4.4" height="4.42" transform="translate(0.4 121.95) rotate(-84.18)"/><rect x="65.95" y="54.16" width="4.42" height="4.42" transform="translate(5.17 118.45) rotate(-84.18)"/><rect x="66.4" y="49.77" width="4.4" height="4.42" transform="translate(9.94 114.96) rotate(-84.18)"/><rect x="67.29" y="41" width="4.42" height="4.42" transform="translate(19.46 107.97) rotate(-84.18)"/><rect x="67.74" y="36.61" width="4.4" height="4.42" transform="translate(24.23 104.47) rotate(-84.18)"/><rect x="68.19" y="32.23" width="4.4" height="4.42" transform="translate(28.99 100.98) rotate(-84.18)"/><rect x="68.63" y="27.85" width="4.42" height="4.42" transform="translate(33.75 97.48) rotate(-84.18)"/><rect x="69.08" y="23.46" width="4.4" height="4.42" transform="translate(38.52 93.98) rotate(-84.18)"/><rect x="69.53" y="19.08" width="4.4" height="4.42" transform="translate(43.28 90.49) rotate(-84.18)"/><rect x="69.98" y="14.7" width="4.4" height="4.42" transform="translate(48.04 87) rotate(-84.18)"/><rect x="70.42" y="10.31" width="4.42" height="4.42" transform="translate(52.8 83.5) rotate(-84.18)"/><rect x="72.58" y="32.69" width="4.4" height="4.4" transform="translate(32.48 105.74) rotate(-84.18)"/><rect x="73.02" y="28.3" width="4.42" height="4.4" transform="translate(37.25 102.25) rotate(-84.18)"/><rect x="73.47" y="23.91" width="4.4" height="4.4" transform="translate(42.02 98.75) rotate(-84.18)"/><rect x="73.92" y="19.53" width="4.4" height="4.4" transform="translate(46.78 95.26) rotate(-84.18)"/></g></g></svg>