<svg xmlns="http://www.w3.org/2000/svg" viewBox="0 0 101.75 52.41"><defs><style>.cls-1{fill:#151515;}</style></defs><g id="Layer_2" data-name="Layer 2"><g id="Layer_1-2" data-name="Layer 1"><rect class="cls-1" x="98.67" y="24.66" width="3.08" height="3.09"/><rect class="cls-1" x="95.58" y="27.75" width="3.09" height="3.08"/><rect class="cls-1" x="95.58" y="24.66" width="3.09" height="3.09"/><rect class="cls-1" x="95.58" y="21.58" width="3.09" height="3.08"/><rect class="cls-1" x="92.5" y="30.83" width="3.08" height="3.08"/><rect class="cls-1" x="92.5" y="27.75" width="3.08" height="3.08"/><rect class="cls-1" x="92.5" y="24.66" width="3.08" height="3.09"/><rect class="cls-1" x="92.5" y="21.58" width="3.08" height="3.08"/><rect class="cls-1" x="92.5" y="18.5" width="3.08" height="3.08"/><rect class="cls-1" x="89.42" y="33.91" width="3.08" height="3.09"/><rect class="cls-1" x="89.42" y="30.83" width="3.08" height="3.08"/><rect class="cls-1" x="89.42" y="27.75" width="3.08" height="3.08"/><rect class="cls-1" x="89.42" y="24.66" width="3.08" height="3.09"/><rect class="cls-1" x="89.42" y="21.58" width="3.08" height="3.08"/><rect class="cls-1" x="89.42" y="18.5" width="3.08" height="3.08"/><rect class="cls-1" x="89.42" y="15.41" width="3.08" height="3.09"/><rect class="cls-1" x="86.33" y="37" width="3.09" height="3.08"/><rect class="cls-1" x="86.33" y="33.91" width="3.09" height="3.09"/><rect class="cls-1" x="86.33" y="30.83" width="3.09" height="3.08"/><rect class="cls-1" x="86.33" y="27.75" width="3.09" height="3.08"/><rect class="cls-1" x="86.33" y="24.66" width="3.09" height="3.09"/><rect class="cls-1" x="86.33" y="21.58" width="3.09" height="3.08"/><rect class="cls-1" x="86.33" y="18.5" width="3.09" height="3.08"/><rect class="cls-1" x="86.33" y="15.41" width="3.09" height="3.09"/><rect class="cls-1" x="86.33" y="12.33" width="3.09" height="3.08"/><rect class="cls-1" x="83.25" y="40.08" width="3.08" height="3.08"/><rect class="cls-1" x="83.25" y="37" width="3.08" height="3.08"/><rect class="cls-1" x="83.25" y="33.91" width="3.08" height="3.09"/><rect class="cls-1" x="83.25" y="30.83" width="3.08" height="3.08"/><rect class="cls-1" x="83.25" y="27.75" width="3.08" height="3.08"/><rect class="cls-1" x="83.25" y="24.66" width="3.08" height="3.09"/><rect class="cls-1" x="83.25" y="21.58" width="3.08" height="3.08"/><rect class="cls-1" x="83.25" y="18.5" width="3.08" height="3.08"/><rect class="cls-1" x="83.25" y="15.41" width="3.08" height="3.09"/><rect class="cls-1" x="83.25" y="12.33" width="3.08" height="3.08"/><rect class="cls-1" x="83.25" y="9.25" width="3.08" height="3.08"/><rect class="cls-1" x="80.17" y="43.16" width="3.08" height="3.09"/><rect class="cls-1" x="80.17" y="40.08" width="3.08" height="3.08"/><rect class="cls-1" x="80.17" y="37" width="3.08" height="3.08"/><rect class="cls-1" x="80.17" y="33.91" width="3.08" height="3.09"/><rect class="cls-1" x="80.17" y="30.83" width="3.08" height="3.08"/><rect class="cls-1" x="80.17" y="27.75" width="3.08" height="3.08"/><rect class="cls-1" x="80.17" y="24.66" width="3.08" height="3.09"/><rect class="cls-1" x="80.17" y="21.58" width="3.08" height="3.08"/><rect class="cls-1" x="80.17" y="18.5" width="3.08" height="3.08"/><rect class="cls-1" x="80.17" y="15.41" width="3.08" height="3.09"/><rect class="cls-1" x="80.17" y="12.33" width="3.08" height="3.08"/><rect class="cls-1" x="80.17" y="9.25" width="3.08" height="3.08"/><rect class="cls-1" x="80.17" y="6.16" width="3.08" height="3.09"/><rect class="cls-1" x="77.08" y="46.25" width="3.09" height="3.08"/><rect class="cls-1" x="77.08" y="43.16" width="3.09" height="3.09"/><rect class="cls-1" x="77.08" y="40.08" width="3.09" height="3.08"/><rect class="cls-1" x="77.08" y="37" width="3.09" height="3.08"/><rect class="cls-1" x="77.08" y="33.91" width="3.09" height="3.09"/><rect class="cls-1" x="77.08" y="30.83" width="3.09" height="3.08"/><rect class="cls-1" x="77.08" y="27.75" width="3.09" height="3.08"/><rect class="cls-1" x="77.08" y="24.66" width="3.09" height="3.09"/><rect class="cls-1" x="77.08" y="21.58" width="3.09" height="3.08"/><rect class="cls-1" x="77.08" y="18.5" width="3.09" height="3.08"/><rect class="cls-1" x="77.08" y="15.41" width="3.09" height="3.09"/><rect class="cls-1" x="77.08" y="12.33" width="3.09" height="3.08"/><rect class="cls-1" x="77.08" y="9.25" width="3.09" height="3.08"/><rect class="cls-1" x="77.08" y="6.16" width="3.09" height="3.09"/><rect class="cls-1" x="77.08" y="3.08" width="3.09" height="3.08"/><rect class="cls-1" x="74" y="49.33" width="3.08" height="3.08"/><rect class="cls-1" x="74" y="46.25" width="3.08" height="3.08"/><rect class="cls-1" x="74" y="43.16" width="3.08" height="3.09"/><rect class="cls-1" x="74" y="40.08" width="3.08" height="3.08"/><rect class="cls-1" x="74" y="37" width="3.08" height="3.08"/><rect class="cls-1" x="74" y="33.91" width="3.08" height="3.09"/><rect class="cls-1" x="74" y="30.83" width="3.08" height="3.08"/><rect class="cls-1" x="74" y="27.75" width="3.08" height="3.08"/><rect class="cls-1" x="74" y="24.66" width="3.08" height="3.09"/><rect class="cls-1" x="74" y="21.58" width="3.08" height="3.08"/><rect class="cls-1" x="74" y="18.5" width="3.08" height="3.08"/><rect class="cls-1" x="74" y="15.41" width="3.08" height="3.09"/><rect class="cls-1" x="74" y="12.33" width="3.08" height="3.08"/><rect class="cls-1" x="74" y="9.25" width="3.08" height="3.08"/><rect class="cls-1" x="74" y="6.16" width="3.08" height="3.09"/><rect class="cls-1" x="74" y="3.08" width="3.08" height="3.08"/><rect class="cls-1" x="74" width="3.08" height="3.08"/><rect class="cls-1" x="70.92" y="33.91" width="3.08" height="3.09"/><rect class="cls-1" x="70.92" y="30.83" width="3.08" height="3.08"/><rect class="cls-1" x="70.92" y="27.75" width="3.08" height="3.08"/><rect class="cls-1" x="70.92" y="24.66" width="3.08" height="3.09"/><rect class="cls-1" x="70.92" y="21.58" width="3.08" height="3.08"/><rect class="cls-1" x="70.92" y="18.5" width="3.08" height="3.08"/><rect class="cls-1" x="70.92" y="15.41" width="3.08" height="3.09"/><rect class="cls-1" x="67.83" y="33.91" width="3.09" height="3.09"/><rect class="cls-1" x="67.83" y="30.83" width="3.09" height="3.08"/><rect class="cls-1" x="67.83" y="27.75" width="3.09" height="3.08"/><rect class="cls-1" x="67.83" y="24.66" width="3.09" height="3.09"/><rect class="cls-1" x="67.83" y="21.58" width="3.09" height="3.08"/><rect class="cls-1" x="67.83" y="18.5" width="3.09" height="3.08"/><rect class="cls-1" x="67.83" y="15.41" width="3.09" height="3.09"/><rect class="cls-1" x="64.75" y="33.91" width="3.08" height="3.09"/><rect class="cls-1" x="64.75" y="30.83" width="3.08" height="3.08"/><rect class="cls-1" x="64.75" y="27.75" width="3.08" height="3.08"/><rect class="cls-1" x="64.75" y="24.66" width="3.08" height="3.09"/><rect class="cls-1" x="64.75" y="21.58" width="3.08" height="3.08"/><rect class="cls-1" x="64.75" y="18.5" width="3.08" height="3.08"/><rect class="cls-1" x="64.75" y="15.41" width="3.08" height="3.09"/><rect class="cls-1" x="61.67" y="33.91" width="3.08" height="3.09"/><rect class="cls-1" x="61.67" y="30.83" width="3.08" height="3.08"/><rect class="cls-1" x="61.67" y="27.75" width="3.08" height="3.08"/><rect class="cls-1" x="61.67" y="24.66" width="3.08" height="3.09"/><rect class="cls-1" x="61.67" y="21.58" width="3.08" height="3.08"/><rect class="cls-1" x="61.67" y="18.5" width="3.08" height="3.08"/><rect class="cls-1" x="61.67" y="15.41" width="3.08" height="3.09"/><rect class="cls-1" x="58.58" y="33.91" width="3.09" height="3.09"/><rect class="cls-1" x="58.58" y="30.83" width="3.09" height="3.08"/><rect class="cls-1" x="58.58" y="27.75" width="3.09" height="3.08"/><rect class="cls-1" x="58.58" y="24.66" width="3.09" height="3.09"/><rect class="cls-1" x="58.58" y="21.58" width="3.09" height="3.08"/><rect class="cls-1" x="58.58" y="18.5" width="3.09" height="3.08"/><rect class="cls-1" x="58.58" y="15.41" width="3.09" height="3.09"/><rect class="cls-1" x="55.5" y="33.91" width="3.08" height="3.09"/><rect class="cls-1" x="55.5" y="30.83" width="3.08" height="3.08"/><rect class="cls-1" x="55.5" y="27.75" width="3.08" height="3.08"/><rect class="cls-1" x="55.5" y="24.66" width="3.08" height="3.09"/><rect class="cls-1" x="55.5" y="21.58" width="3.08" height="3.08"/><rect class="cls-1" x="55.5" y="18.5" width="3.08" height="3.08"/><rect class="cls-1" x="55.5" y="15.41" width="3.08" height="3.09"/><rect class="cls-1" x="52.42" y="33.91" width="3.08" height="3.09"/><rect class="cls-1" x="52.42" y="30.83" width="3.08" height="3.08"/><rect class="cls-1" x="52.42" y="27.75" width="3.08" height="3.08"/><rect class="cls-1" x="52.42" y="24.66" width="3.08" height="3.09"/><rect class="cls-1" x="52.42" y="21.58" width="3.08" height="3.08"/><rect class="cls-1" x="52.42" y="18.5" width="3.08" height="3.08"/><rect class="cls-1" x="52.42" y="15.41" width="3.08" height="3.09"/><rect class="cls-1" x="49.33" y="33.91" width="3.09" height="3.09"/><rect class="cls-1" x="49.33" y="30.83" width="3.09" height="3.08"/><rect class="cls-1" x="49.33" y="27.75" width="3.09" height="3.08"/><rect class="cls-1" x="49.33" y="24.66" width="3.09" height="3.09"/><rect class="cls-1" x="49.33" y="21.58" width="3.09" height="3.08"/><rect class="cls-1" x="49.33" y="18.5" width="3.09" height="3.08"/><rect class="cls-1" x="49.33" y="15.41" width="3.09" height="3.09"/><rect class="cls-1" x="46.25" y="33.91" width="3.08" height="3.09"/><rect class="cls-1" x="46.25" y="30.83" width="3.08" height="3.08"/><rect class="cls-1" x="46.25" y="27.75" width="3.08" height="3.08"/><rect class="cls-1" x="46.25" y="24.66" width="3.08" height="3.09"/><rect class="cls-1" x="46.25" y="21.58" width="3.08" height="3.08"/><rect class="cls-1" x="46.25" y="18.5" width="3.08" height="3.08"/><rect class="cls-1" x="46.25" y="15.41" width="3.08" height="3.09"/><rect class="cls-1" x="43.17" y="33.91" width="3.08" height="3.09"/><rect class="cls-1" x="43.17" y="30.83" width="3.08" height="3.08"/><rect class="cls-1" x="43.17" y="27.75" width="3.08" height="3.08"/><rect class="cls-1" x="43.17" y="24.66" width="3.08" height="3.09"/><rect class="cls-1" x="43.17" y="21.58" width="3.08" height="3.08"/><rect class="cls-1" x="43.17" y="18.5" width="3.08" height="3.08"/><rect class="cls-1" x="43.17" y="15.41" width="3.08" height="3.09"/><rect class="cls-1" x="33.92" y="33.91" width="3.08" height="3.09"/><rect class="cls-1" x="33.92" y="27.75" width="3.08" height="3.08"/><rect class="cls-1" x="33.92" y="21.58" width="3.08" height="3.08"/><rect class="cls-1" x="33.92" y="15.41" width="3.08" height="3.09"/><rect class="cls-1" x="30.83" y="33.91" width="3.09" height="3.09"/><rect class="cls-1" x="30.83" y="27.75" width="3.09" height="3.08"/><rect class="cls-1" x="30.83" y="21.58" width="3.09" height="3.08"/><rect class="cls-1" x="30.83" y="15.41" width="3.09" height="3.09"/><rect class="cls-1" x="27.75" y="33.91" width="3.08" height="3.09"/><rect class="cls-1" x="27.75" y="27.75" width="3.08" height="3.08"/><rect class="cls-1" x="27.75" y="21.58" width="3.08" height="3.08"/><rect class="cls-1" x="27.75" y="15.41" width="3.08" height="3.09"/><rect class="cls-1" x="24.67" y="27.75" width="3.08" height="3.08"/><rect class="cls-1" x="24.67" y="21.58" width="3.08" height="3.08"/><rect class="cls-1" x="24.67" y="15.41" width="3.08" height="3.09"/><rect class="cls-1" x="21.58" y="33.91" width="3.09" height="3.09"/><rect class="cls-1" x="21.58" y="27.75" width="3.09" height="3.08"/><rect class="cls-1" x="21.58" y="21.58" width="3.09" height="3.08"/><rect class="cls-1" x="18.5" y="33.91" width="3.08" height="3.09"/><rect class="cls-1" x="18.5" y="21.58" width="3.08" height="3.08"/><rect class="cls-1" x="18.5" y="15.41" width="3.08" height="3.09"/><rect class="cls-1" x="15.42" y="27.75" width="3.08" height="3.08"/><rect class="cls-1" x="15.42" y="15.41" width="3.08" height="3.09"/><rect class="cls-1" x="12.33" y="27.75" width="3.09" height="3.08"/><rect class="cls-1" x="12.33" y="21.58" width="3.09" height="3.08"/><rect class="cls-1" x="12.33" y="15.41" width="3.09" height="3.09"/><rect class="cls-1" x="9.25" y="27.75" width="3.08" height="3.08"/><rect class="cls-1" x="9.25" y="21.58" width="3.08" height="3.08"/><rect class="cls-1" x="9.25" y="15.41" width="3.08" height="3.09"/><rect class="cls-1" x="6.17" y="21.58" width="3.08" height="3.08"/><rect class="cls-1" x="3.08" y="15.41" width="3.09" height="3.09"/><rect class="cls-1" y="15.41" width="3.08" height="3.09"/></g></g></svg>