<svg xmlns="http://www.w3.org/2000/svg" viewBox="0 0 77.63 82.19"><g id="Layer_2" data-name="Layer 2"><g id="Layer_1-2" data-name="Layer 1"><rect x="73.05" y="36.53" width="4.58" height="4.56"/><rect x="73.05" y="9.14" width="4.58" height="4.56"/><rect x="73.05" y="4.58" width="4.58" height="4.56"/><rect x="68.49" y="36.53" width="4.56" height="4.56"/><rect x="68.49" y="13.7" width="4.56" height="4.58"/><rect x="68.49" y="9.14" width="4.56" height="4.56"/><rect x="68.49" y="4.58" width="4.56" height="4.56"/><rect x="68.49" width="4.56" height="4.58"/><rect x="63.93" y="36.53" width="4.56" height="4.56"/><rect x="63.93" y="13.7" width="4.56" height="4.58"/><rect x="63.93" y="9.14" width="4.56" height="4.56"/><rect x="63.93" y="4.58" width="4.56" height="4.56"/><rect x="63.93" width="4.56" height="4.58"/><rect x="59.36" y="36.53" width="4.58" height="4.56"/><rect x="59.36" y="31.97" width="4.58" height="4.56"/><rect x="59.36" y="27.4" width="4.58" height="4.58"/><rect x="59.36" y="22.84" width="4.58" height="4.56"/><rect x="59.36" y="18.27" width="4.58" height="4.56"/><rect x="59.36" y="9.14" width="4.58" height="4.56"/><rect x="59.36" y="4.58" width="4.58" height="4.56"/><rect x="54.79" y="77.63" width="4.56" height="4.56"/><rect x="54.79" y="73.07" width="4.56" height="4.56"/><rect x="54.79" y="68.49" width="4.56" height="4.58"/><rect x="54.79" y="63.93" width="4.56" height="4.56"/><rect x="54.79" y="59.37" width="4.56" height="4.56"/><rect x="54.79" y="54.79" width="4.56" height="4.58"/><rect x="54.79" y="50.23" width="4.56" height="4.56"/><rect x="54.79" y="27.4" width="4.56" height="4.58"/><rect x="54.79" y="22.84" width="4.56" height="4.56"/><rect x="54.79" y="18.27" width="4.56" height="4.56"/><rect x="50.23" y="77.63" width="4.56" height="4.56"/><rect x="50.23" y="73.07" width="4.56" height="4.56"/><rect x="50.23" y="68.49" width="4.56" height="4.58"/><rect x="50.23" y="63.93" width="4.56" height="4.56"/><rect x="50.23" y="59.37" width="4.56" height="4.56"/><rect x="50.23" y="54.79" width="4.56" height="4.58"/><rect x="50.23" y="50.23" width="4.56" height="4.56"/><rect x="50.23" y="45.67" width="4.56" height="4.56"/><rect x="50.23" y="31.97" width="4.56" height="4.56"/><rect x="50.23" y="27.4" width="4.56" height="4.58"/><rect x="50.23" y="22.84" width="4.56" height="4.56"/><rect x="50.23" y="18.27" width="4.56" height="4.56"/><rect x="45.66" y="50.23" width="4.58" height="4.56"/><rect x="45.66" y="45.67" width="4.58" height="4.56"/><rect x="45.66" y="41.1" width="4.58" height="4.58"/><rect x="45.66" y="36.53" width="4.58" height="4.56"/><rect x="45.66" y="31.97" width="4.58" height="4.56"/><rect x="45.66" y="27.4" width="4.58" height="4.58"/><rect x="45.66" y="18.27" width="4.58" height="4.56"/><rect x="41.1" y="45.67" width="4.56" height="4.56"/><rect x="41.1" y="41.1" width="4.56" height="4.58"/><rect x="41.1" y="36.53" width="4.56" height="4.56"/><rect x="41.1" y="31.97" width="4.56" height="4.56"/><rect x="41.1" y="18.27" width="4.56" height="4.56"/><rect x="36.53" y="45.67" width="4.56" height="4.56"/><rect x="36.53" y="41.1" width="4.56" height="4.58"/><rect x="36.53" y="36.53" width="4.56" height="4.56"/><rect x="36.53" y="18.27" width="4.56" height="4.56"/><rect x="31.97" y="50.23" width="4.56" height="4.56"/><rect x="31.97" y="45.67" width="4.56" height="4.56"/><rect x="31.97" y="41.1" width="4.56" height="4.58"/><rect x="31.97" y="22.84" width="4.56" height="4.56"/><rect x="27.4" y="54.79" width="4.58" height="4.58"/><rect x="27.4" y="50.23" width="4.58" height="4.56"/><rect x="27.4" y="45.67" width="4.58" height="4.56"/><rect x="27.4" y="27.4" width="4.58" height="4.58"/><rect x="22.84" y="54.79" width="4.56" height="4.58"/><rect x="22.84" y="50.23" width="4.56" height="4.56"/><rect x="18.27" y="54.79" width="4.56" height="4.58"/><rect x="18.27" y="50.23" width="4.56" height="4.56"/><rect x="13.7" y="54.79" width="4.58" height="4.58"/><rect x="13.7" y="50.23" width="4.58" height="4.56"/><rect x="9.14" y="54.79" width="4.56" height="4.58"/><rect x="9.14" y="50.23" width="4.56" height="4.56"/><rect x="4.58" y="54.79" width="4.56" height="4.58"/><rect x="4.58" y="50.23" width="4.56" height="4.56"/><rect y="54.79" width="4.58" height="4.58"/><rect y="50.23" width="4.58" height="4.56"/></g></g></svg>