<?xml version="1.0" encoding="utf-8"?>
<!-- Generator: Adobe Illustrator 24.2.0, SVG Export Plug-In . SVG Version: 6.00 Build 0)  -->
<svg version="1.1" id="Layer_1" xmlns="http://www.w3.org/2000/svg" xmlns:xlink="http://www.w3.org/1999/xlink" x="0px" y="0px"
	 viewBox="0 0 14400 14400" style="enable-background:new 0 0 14400 14400;" xml:space="preserve">
<style type="text/css">
	.st0{stroke:#000000;stroke-miterlimit:10;}
</style>
<g id="Layer_2_1_">
	<g id="Layer_1-2">
		<path class="st0" d="M9620.3,10096c-46.5,0-90.6,1.1-134.4-0.8c-10.2,0-27.6-10.8-28.7-17.5c-2.6-44.2-2.9-88.5-0.8-132.7
			c0-7,13.8-13.8,22.8-19.9c4.1-2.6,10.8-1.1,16.3-1.5C9630.1,9912,9642.6,9928.3,9620.3,10096z"/>
		<path class="st0" d="M9315.3,10098.2c-84.9,0-84.9,0-84.9-88.8c0-86.6,0-86.6,93.2-86.6c82.8,0,82.8,0,82,91.5
			C9405.6,10098.2,9405.6,10098.2,9315.3,10098.2z"/>
		<path class="st0" d="M8065.7,10013.2c-1.2,90.3,12.7,84.2-89,84.5c-83.9,0-83.9,0-83.9-90.4c0-84.9,0-84.9,95.9-84.8
			C8065.7,9923.1,8065.7,9923.1,8065.7,10013.2z"/>
		<path class="st0" d="M7753.4,10096c-91.1-1-82.8,11-83.5-89.7c0-82.8,0-82.8,91.7-82.8c82.8,0,83.8,0,82.8,91
			C7844.7,10109.8,7849,10094.4,7753.4,10096z"/>
		<path class="st0" d="M7446.8,10003.9c0-81.2,0-81.2,99.5-81c75.8,0,76.2,0,75.6,93.2c-0.7,95.5,6.1,78.4-104.8,79.6
			C7446.7,10096,7446.7,10096,7446.8,10003.9z"/>
		<path class="st0" d="M7223.9,10004.1c0-81.3,0-81.3,98.6-81.2c76.9,0,76.9,0,76.6,96.6c0,78.4,0,78.4-95.7,78.3
			C7223.8,10098.1,7223.8,10098.1,7223.9,10004.1z"/>
		<path class="st0" d="M7094.2,9922.9c82.8,0,82.8,0,82,91.7c0,83.8,0,83.8-95.8,83.7c-79.5,0-79.5,0-79.4-94.3
			C7000.8,9922.9,7000.8,9922.9,7094.2,9922.9z"/>
		<path class="st0" d="M6861.3,10096c-90.8-1-82.8,10.9-82.8-90c0-82.8,0-82.8,92.1-82.8c82.8,0,82.8,0,82.8,91.4
			C6952.8,10109.8,6957.1,10094.4,6861.3,10096z"/>
		<path class="st0" d="M6639.5,10096c-91.5-1-83.9,11.3-84.3-89c0-83.9,0-83.9,91.1-83.9c84.2,0,84.3,0,84.1,90.3
			C6729.9,10109.8,6734.4,10094.4,6639.5,10096z"/>
		<path class="st0" d="M6419.7,10098.2c-87.5,0-87.5,0-87.5-86.1c0-89.2,0-89.2,90.6-89.2c84.6,0,84.6,0,84.6,88.9
			C6507.4,10098.1,6507.4,10098.1,6419.7,10098.2z"/>
		<path class="st0" d="M5167.4,10010c-1.4,94.6,13.8,87.7-91,88.1c-82,0-82,0-82-92.3c0-82.8,0-82.8,92.2-82.8
			S5166.2,9919.2,5167.4,10010z"/>
		<path class="st0" d="M4771.5,10007.3c0-84.3,0-84.3,90.7-84.3c84.6,0,85,0,84.5,89.9c0,98.7,6.8,81.7-101.5,82.8
			C4771.5,10096,4771.5,10096,4771.5,10007.3z"/>
		<path class="st0" d="M7086.7,10544.1c-85.7,0-85.7,0-85.7-87.9s0-87.4,92.3-87.4c82.8,0,82.8,0,82.8,90.8
			C7176.1,10544.1,7176.1,10544.1,7086.7,10544.1z"/>
		<path class="st0" d="M6281.8,10538.8c-24.6,1.4-39.2,2.6-53.8,2.9c-126.7,1.8-136.9-9-116.9-136.9c6.1-16.8,20-29.6,37.3-34.1
			c33-4.8,66.4-4.8,99.4,0c15.5,4.3,27.7,16.1,32.6,31.5C6284.1,10445.7,6281.8,10489.8,6281.8,10538.8z"/>
		<path class="st0" d="M6062.2,10455.7c0,88.3,0,88.3-91.2,88.3c-84.1,0-84.1,0-84.1-89.6c0-85.7,0-85.7,94.1-85.7
			C6062.2,10368.9,6062.2,10368.9,6062.2,10455.7z"/>
		<path class="st0" d="M5390.3,10459.1c-1.4,90.6,12.8,84.6-88.5,84.9c-84.5,0-84.5,0-84.5-89.9c0-85.3,0-85.3,95.4-85.3
			C5390.3,10368.9,5390.3,10368.9,5390.3,10459.1z"/>
		<path class="st0" d="M5169.8,10455.7c0,88.3,0,88.3-91.2,88.3c-84.1,0-84.1,0-84.1-89.6c0-85.7,0-85.7,94-85.7
			C5169.8,10368.9,5169.8,10368.9,5169.8,10455.7z"/>
		<path class="st0" d="M9403.4,10236.3c-1.4,90.4,12.8,84.5-88.8,84.8c-84.2,0-84.3,0-84.2-90c0-85.3,0-85.3,95.5-85.2
			C9403.4,10146,9403.4,10146,9403.4,10236.3z"/>
		<path class="st0" d="M9182.7,10234.1c0,86.8,0,86.8-92.6,86.8c-82.8,0-82.8,0-82.8-91.1c0-84.2,0-84.2,95.5-84.2
			C9182.7,10146,9182.7,10146,9182.7,10234.1z"/>
		<path class="st0" d="M8288.6,10235.8c-1.4,90.7,12.8,84.9-88.2,85.2c-84.8,0-84.8,0-84.8-89.6c0-85.6,0-85.6,95.2-85.6
			C8288.7,10146,8288.7,10146,8288.6,10235.8z"/>
		<path class="st0" d="M7976.6,10318.8c-91.2-1-83.5,11.2-83.8-89.4c0-82.8,0-82.8,91.4-82.8c83.8,0,84.1,0,83.7,90.8
			C8067.6,10333.2,8072,10316.9,7976.6,10318.8z"/>
		<path class="st0" d="M7305.2,10321.2c-81.4,0-81.4,0-81.3-93c0-82.8,0-82.8,98.4-82.1c89,0,73.4-4,74.4,98.7
			C7397.4,10321.2,7396.7,10321.2,7305.2,10321.2z"/>
		<path class="st0" d="M7090.2,10321.2c-89.2,0-89.2,0-89.2-84.5c0-90.8,0-90.8,88.9-90.8c86.3,0,86.3,0,86.3,87.4
			S7176.1,10321,7090.2,10321.2z"/>
		<path class="st0" d="M6501.7,10315.8c-21.8,1.2-38.1,3.2-54.4,2.9c-132.8-2.9-112.1,24-115.7-118.4c-1.1-41.4,12.7-56,54.1-55.2
			c143.4,4,116.2-18.6,119.1,120.6C6505.1,10280.4,6503.1,10294.9,6501.7,10315.8z"/>
		<path class="st0" d="M6199,10321.2c-89.7,0-89.7,0-89.7-83.8c0-91.5,0-91.5,88.2-91.5c88.2,0,87,0,87,86.7
			S6284.4,10321,6199,10321.2z"/>
		<path class="st0" d="M5390.3,10236.4c-1.2,90.4,12.7,84.3-88.9,84.6c-84.2,0-84.2,0-84.1-95.8c0-79.5,0-79.5,95.8-79.4
			C5390.3,10146,5390.3,10146,5390.3,10236.4z"/>
		<path class="st0" d="M5169.8,10234.1c0,87.7,0,87.7-91.9,87.7c-82.8,0-82.8,0-82.8-90.3c0-85,0-85,94.8-85
			C5169.8,10146,5169.8,10146,5169.8,10234.1z"/>
		<path class="st0" d="M6641.9,9477c98.7,0,86.3-6.2,86.1,87c-0.1,93.2,13.8,88.2-85,88.2s-87.1,6.9-87.7-92.2
			C6554.7,9477,6555.1,9477,6641.9,9477z"/>
		<path class="st0" d="M6332.2,9559c0-82.1,0-82.1,98.6-82c76.7,0,77.2,0,76.5,92.2c0,96.6,6.3,79.4-103.8,80.6
			C6332,9650.6,6332,9649.9,6332.2,9559z"/>
		<path class="st0" d="M6192.8,9650c-91-1.1-82.8,11-82.8-89.7c0-82.8,0-82.8,91.8-82.8c82.8,0,83.7,0,82.8,91
			C6284,9664.2,6288.4,9648.4,6192.8,9650z"/>
		<path class="st0" d="M5972.2,9650c-92.5-1.1-85.6,11.9-85.9-87.4c0-85.6,0-85.6,89.4-85.6c85.7,0,86,0,85.6,88.6
			C6061.1,9664.1,6065.6,9648.5,5972.2,9650z"/>
		<path class="st0" d="M5749.2,9650c-92.5-1.1-85.6,11.9-85.9-87.4c0-85.6,0-85.6,89.4-85.6c85.7,0,86,0,85.6,88.6
			C5838.1,9664.1,5842.7,9648.5,5749.2,9650z"/>
		<path class="st0" d="M5445.1,9647.5c-2.1-20.8-4.1-34.6-4.1-49.7c1.8-139.6-19.2-117.6,120.8-121.3c41.4-1.1,55.9,12.1,55.2,54
			c-3.7,144,16,116.4-116,119.4C5483.8,9650.3,5467.2,9648.5,5445.1,9647.5z"/>
		<path class="st0" d="M5304.9,9477c87.8,0,88.1,0,87.7,86.7c0,100.8,5.7,85.6-92.8,86c-89.9,0-82,11.2-82.8-90.7
			C5217.2,9477,5217.5,9477,5304.9,9477z"/>
		<path class="st0" d="M5079.5,9652.2c-85,0-85,0-85-88.5s0-86.7,93.2-86.7c82.8,0,82.8,0,82.8,91.5
			C5169.6,9652.4,5169.6,9652.4,5079.5,9652.2z"/>
		<path class="st0" d="M4864.7,9477c82.1,0,82.1,0,82,91.5c0,83.8,0,83.8-95.8,83.7c-79.5,0-79.5,0-79.4-94.1
			C4771.7,9477,4771.7,9477,4864.7,9477z"/>
		<path class="st0" d="M9626.3,9790.3c-1.4,90.6,12.7,84.6-88.6,84.9c-84.3,0-84.3,0-84.3-89.9c0-85.4,0-85.4,95.4-85.3
			C9626.3,9700.1,9626.3,9700.1,9626.3,9790.3z"/>
		<path class="st0" d="M9318.8,9875.2c-88.3,0-88.3,0-88.3-85.3c0-90,0-90,89.7-90c85.4,0,85.4,0,85.4,88.2
			C9405.6,9876.3,9405.6,9875.2,9318.8,9875.2z"/>
		<path class="st0" d="M7842.9,9791.5c-1.2,89.3,12.4,82.8-89.9,83.7c-82.8,0-82.8,0-82.8-96.6c0-78.5,0-78.5,96.6-78.4
			C7842.9,9700.1,7842.9,9700.1,7842.9,9791.5z"/>
		<path class="st0" d="M7529,9875.2c-82.1,0-82.1,0-82.1-91.5c0-83.9,0-83.9,96.6-83.8c79.2,0,79.2,0,79.1,94.4
			C7622,9875.2,7622,9875.2,7529,9875.2z"/>
		<path class="st0" d="M6951,9787.2c-1.4,92.5,13.8,87.9-85.6,87.9c-99.4,0-86.8,7.2-87.2-92.5c0-82.8,0-82.8,92.2-82.8
			C6962.6,9699.8,6949.8,9695.7,6951,9787.2z"/>
		<path class="st0" d="M6650.2,9700c80.2,0,80.2,0,80.1,93.6c0,81.9,0,81.9-97.7,81.7c-77.6,0-77.6,0-77.4-96.6
			C6555.3,9699.8,6555.3,9699.8,6650.2,9700z"/>
		<path class="st0" d="M5167.4,9786.3c-1.5,95.1,13.8,88.5-90.1,88.9c-82.8,0-82.8,0-82.8-91.7c0-83.5,0-83.5,91.5-83.5
			C5167.4,9700,5167.4,9700,5167.4,9786.3z"/>
		<path class="st0" d="M4946.7,9789.4c0,85.9,0,85.9-93.6,85.9c-81.6-0.1-81.6-0.1-81.6-92.1c0-82.8,0-82.8,96.6-82.8
			C4946.8,9700.1,4946.8,9700.1,4946.7,9789.4z"/>
		<path class="st0" d="M9626.3,9565.8c-1.4,91.5,13,86.1-87.1,86.4c-85.9,0-85.9,0-85.9-88.5c0-88.5,0-86.8,93.9-86.7
			S9625.1,9473.7,9626.3,9565.8z"/>
		<path class="st0" d="M9405.6,9565.4c0,87,0,87-92.5,86.8c-82.8,0-82.8,0-82.8-90.8c0-84.5,0-84.5,95.4-84.3
			C9405.6,9477.2,9405.6,9477.2,9405.6,9565.4z"/>
		<path class="st0" d="M9091.9,9650c-91.5-1.1-84.1,11.3-84.3-89c0-83.9,0-83.9,91-83.9c84.3,0,84.5,0,84.2,90.3
			C9181.9,9664.1,9187,9648.5,9091.9,9650z"/>
		<path class="st0" d="M8784.6,9561.4c0-84.3,0-84.3,90.6-84.3c84.6,0,85.2,0,84.5,89.9c0,98.7,6.9,81.7-101.5,82.8
			C8784.4,9650.6,8784.4,9649.9,8784.6,9561.4z"/>
		<path class="st0" d="M8645.2,9650c-91-1.1-82.8,11-83.5-89.7c0-82.8,0-82.8,91.8-82.8c82.8,0,83.7,0,82.8,91
			C8736.4,9664.2,8740.8,9648.4,8645.2,9650z"/>
		<path class="st0" d="M8423.3,9650c-91.7-1.1-84.3,11.3-84.6-88.8c0-84.2,0-84.2,90.7-84.2c84.5,0,84.8,0,84.3,90
			C8513.5,9664.1,8518.2,9648.5,8423.3,9650z"/>
		<path class="st0" d="M8200.5,9650c-91.8-1.1-84.5,11.3-84.8-88.6c0-84.3,0-84.3,90.6-84.3c84.6,0,84.9,0,84.5,89.9
			C8290.4,9664.1,8295.2,9648.5,8200.5,9650z"/>
		<path class="st0" d="M8068,9565.7c-0.8,99.4,5.1,82.8-94.8,84.1c-88.9,0-79.9,9.9-80.3-92.6c0-80.2,0-80.2,94.8-80.1
			C8068,9477.2,8068,9477.2,8068,9565.7z"/>
		<path class="st0" d="M7751.9,9652.2c-82.1,0-82.1,0-82.1-91.4c0-83.9,0-83.9,96.6-83.8c79.4,0,79.4,0,79.2,94.4
			C7844.9,9652.4,7844.9,9652.4,7751.9,9652.2z"/>
		<path class="st0" d="M8734.2,11430.7c-24.7,1.2-39.3,2.6-54,2.8c-126.4,1.8-136.8-9.4-117.1-137.1c4.5-15.9,16.5-28.5,32.2-33.7
			c34.8-4.5,70.1-4.5,104.9,0c15.4,4.4,27.6,16.3,32.4,31.6C8736.5,11338.4,8734.2,11381.7,8734.2,11430.7z"/>
		<path class="st0" d="M8513.9,11349.8c0,86.1,0,86.1-93.5,86c-81.9,0-81.9,0-81.9-91.8c0-83.5,0-83.5,96.6-82.8
			C8513.9,11260.6,8513.9,11260.6,8513.9,11349.8z"/>
		<path class="st0" d="M8291,11348.3c0,87.7,0,87.7-91.9,87.5c-82.8,0-82.8,0-82.8-90.3c0-85,0-85,94.8-84.9
			C8291,11260.6,8291,11260.6,8291,11348.3z"/>
		<path class="st0" d="M8068,11348.3c0,87.7,0,87.7-91.9,87.5c-82.8,0-82.8,0-82.8-90.3c0-85,0-85,94.8-84.9
			C8068,11260.6,8068,11260.6,8068,11348.3z"/>
		<path class="st0" d="M7396.9,11352.2c-1.2,89.7,12.6,83.7-89.6,84.1c-82.8,0-82.8,0-82.8-91c0-84.3,0-84.3,96.6-84.2
			C7396.9,11260.8,7396.9,11260.8,7396.9,11352.2z"/>
		<path class="st0" d="M7176.1,11349.5c0,86.4,0,86.4-93.2,86.3c-82.1,0-82.1,0-82-91.7c0-83.7,0-83.7,96.6-83.5
			C7176.3,11260.6,7176.3,11260.6,7176.1,11349.5z"/>
		<path class="st0" d="M6505.1,11352.2c-1.4,89.7,12.4,83.7-89.6,84.1c-82.8,0-82.8,0-82.8-91c0-84.3,0-84.3,96.6-84.2
			C6505.1,11260.8,6505.1,11260.8,6505.1,11352.2z"/>
		<path class="st0" d="M6284.4,11347.6c0,88.2,0,88.2-91.2,88.2c-84.1,0-84.1,0-83.9-89.6c0-85.7,0-85.7,94-85.6
			C6284.4,11260.6,6284.4,11260.6,6284.4,11347.6z"/>
		<path class="st0" d="M5886.2,11343.6c0-82.8,0-82.8,96.6-82.8c78.7,0,78.7,0,78.5,95.1c0,80.3,0,80.3-99.4,80.1
			C5886.2,11435.7,5886.2,11435.7,5886.2,11343.6z"/>
		<path class="st0" d="M5746.6,11433.6c-90.8-1.1-82.8,10.9-82.8-90.1c0-82.8,0-82.8,92.1-82.8c82.8,0,82.8,0,82.8,91.2
			C5838.1,11447.8,5842.4,11432,5746.6,11433.6z"/>
		<path class="st0" d="M8951.3,11210.3c-46.5,0-90.6,1.1-134.6-0.8c-10.2,0-27.6-10.9-28.6-17.5c-2.5-44.2-2.7-88.5-0.7-132.8
			c0-7,13.8-13.8,22.9-19.7c4.1-2.5,10.8-1.1,16.3-1.5C8961,11027,8974.8,11043.5,8951.3,11210.3z"/>
		<path class="st0" d="M8657.3,11037.7c79.4,0,79.4,0,79.2,94.4c0,81,0,81-98.7,80.8c-76.8,0-76.8,0-76.5-96.6
			C8561.8,11037.6,8561.8,11037.6,8657.3,11037.7z"/>
		<path class="st0" d="M7842.9,11879.5c-31.3,0-53.3,0-75.1,0c-108.9-1.7-96.6,15.7-97.7-96.6c0-75.6,0-76.2,76.3-75.6
			c112.2,0.7,94.8-11.2,96.6,98.3C7842.9,11826.7,7842.9,11849.1,7842.9,11879.5z"/>
		<path class="st0" d="M7531.5,11879.5c-91.7-1.1-84.2,11.3-84.5-88.8c0-84.2,0-84.2,90.7-84.2c84.5,0,84.8,0,84.3,90
			C7622,11893.6,7626.4,11878,7531.5,11879.5z"/>
		<path class="st0" d="M7309.5,11879.5c-92.2-1.1-85.2,11.7-85.6-87.8c0-85.3,0-85.3,95.4-85.2c79.9,0,80.1,0,79.8,89
			C7398.7,11893.4,7403.4,11878,7309.5,11879.5z"/>
		<path class="st0" d="M7085,11879.5c-91.5-1-83.7,10.9-84.1-89.3c0-83.7,0-83.7,91.2-83.7c84.1,0,84.2,0,83.9,90.4
			C7175.7,11893.7,7180.3,11877.8,7085,11879.5z"/>
		<path class="st0" d="M6953.2,11793.9c-0.7,99.9,5.2,84.5-93.9,84.9c-89.4,0-80.9,10.4-81.3-91.8c0-81,0-81,94.1-80.9
			C6953.2,11706.5,6953.2,11706.5,6953.2,11793.9z"/>
		<path class="st0" d="M6730.3,11793.9c-0.7,100.2,5.2,84.8-93.6,85.2c-89.6,0-81.2,10.6-81.6-91.5c0-81.3,0-81.3,93.9-81.2
			C6730.3,11706.5,6730.3,11706.5,6730.3,11793.9z"/>
		<path class="st0" d="M8508.6,11652.3c-18.8,1.7-33.1,3.7-47.5,4.1c-131.7,2.9-136.7-1.5-120.6-133.1c5.7-18.4,20.4-32.7,38.9-38
			c132.1-14.9,134.4-11.9,132.1,121.9C8511.3,11620.1,8509.9,11632.9,8508.6,11652.3z"/>
		<path class="st0" d="M8198.9,11656.5c-90.7-1.1-82.8,10.9-82.8-90.3c0-82.8,0-82.8,92.2-82.8c82.8,0,82.8,0,82.8,91.4
			C8290.5,11670.8,8294.8,11654.9,8198.9,11656.5z"/>
		<path class="st0" d="M7892.7,11567.9c0-84.3,0-84.3,90.7-84.3c84.6,0,85,0,84.5,89.9c-0.7,98.7,6.8,81.7-101.5,82.8
			C7892.7,11657.1,7892.7,11655.9,7892.7,11567.9z"/>
		<path class="st0" d="M7845.1,11573c0,85.9,0,85.9-93.7,85.7c-81.6,0-81.6,0-81.6-91.9c0-82.8,0-82.8,96.6-82.8
			C7845.1,11483.7,7845.1,11483.7,7845.1,11573z"/>
		<path class="st0" d="M7622,11573c0,86.1,0,86.1-93.3,86c-81.9,0-81.9,0-81.9-91.8c0-83.5,0-83.5,96.6-82.8
			C7622,11483.7,7622,11483.7,7622,11573z"/>
		<path class="st0" d="M7399.1,11568.5c0,90.3,0,90.3-89,90.3c-86.1,0-86.1,0-86.1-87.5s0-87.8,92.1-87.7
			C7399.1,11483.6,7399.1,11483.6,7399.1,11568.5z"/>
		<path class="st0" d="M7176.1,11568.6c0,90.1,0,90.1-89.3,90.1c-85.9,0-85.9,0-85.9-87.7c0-87.7,0-87.5,92.2-87.5
			C7176.1,11483.6,7176.1,11483.6,7176.1,11568.6z"/>
		<path class="st0" d="M6862.8,11658.8c-85,0-85,0-85-88.5c0-88.5,0-86.8,93-86.7c82.8,0,82.8,0,82.8,91.5
			C6953.2,11658.8,6953.2,11658.8,6862.8,11658.8z"/>
		<path class="st0" d="M6730.3,11568.6c0,90.1,0,90.1-89.3,90.1c-85.9,0-85.9,0-85.9-87.7c0-87.7,0-87.5,92.2-87.5
			C6730.3,11483.6,6730.3,11483.6,6730.3,11568.6z"/>
		<path class="st0" d="M6415.4,11656.5c-90.8-1.1-82.8,10.9-82.8-90.1c0-82.8,0-82.8,92.1-82.8c82.8,0,82.8,0,82.8,91.2
			C6506.9,11670.8,6511.2,11654.9,6415.4,11656.5z"/>
		<path class="st0" d="M6195.2,11656.5c-92.5-1.1-85.7,12-86-87.4c0-85.6,0-85.6,89.3-85.6c85.9,0,86.1,0,85.9,88.5
			C6284,11670.5,6288.6,11655,6195.2,11656.5z"/>
		<path class="st0" d="M5886.3,11564.6c0-81.3,0-81.3,99.4-81c75.9,0,76.3,0,75.6,93.2c0,95.5,6.1,78.4-104.8,79.6
			C5886.2,11657.1,5886.2,11655.9,5886.3,11564.6z"/>
		<path class="st0" d="M9397.2,10764.4c-46.5,0-90.7,1.1-134.6-0.8c-10.2,0-27.6-10.9-28.6-17.7c-2.3-44.2-2.3-88.5,0-132.7
			c0-7,13.8-13.8,22.8-19.7c4.1-2.6,10.9-1.1,16.4-1.5C9407.4,10581.1,9420.2,10597.6,9397.2,10764.4z"/>
		<path class="st0" d="M9094.2,10767c-86.7,0-86.7,0-86.7-87c0-87,0-88.3,91.4-88.3c83.8,0,83.8,0,83.8,89.9
			C9182.7,10767,9182.7,10767,9094.2,10767z"/>
		<path class="st0" d="M8874.6,10591.7c85.2,0,85.2,0,85.2,88.5c0,88.5,0,86.8-92.8,86.8c-82.8,0-82.8,0-82.8-91.1
			C8784.6,10591.7,8784.6,10591.7,8874.6,10591.7z"/>
		<path class="st0" d="M8651.6,10591.7c85.2,0,85.2,0,85.2,88.5c0,88.5,0,86.8-92.8,86.8c-82.8,0-82.8,0-82.8-91.1
			C8561.6,10591.7,8561.6,10591.7,8651.6,10591.7z"/>
		<path class="st0" d="M8513.9,10678c-0.7,101,5.8,86.1-92.3,86.4c-88.5,0-82.8,11.2-82.8-84.6c0-88.1,0-88.1,92.5-88.1
			C8513.9,10591.9,8513.9,10591.9,8513.9,10678z"/>
		<path class="st0" d="M7396.9,10681.4c-1.4,91,13,85.2-88.1,85.4c-84.9,0-84.9,0-84.9-89.3c0-85.9,0-85.9,94.8-85.7
			C7396.9,10591.9,7396.9,10591.9,7396.9,10681.4z"/>
		<path class="st0" d="M7176.1,10679.4c0,87.7,0,87.7-91.8,87.7c-82.8,0-82.8,0-82.8-90.3c0-85,0-85,94.8-85
			C7176.1,10591.9,7176.1,10591.9,7176.1,10679.4z"/>
		<path class="st0" d="M6058.9,10762.1c-25.3,1.2-40,2.3-55.2,2.6c-125.6,1.7-136.9-10.9-116.2-138c4.8-15.7,17.1-28,32.7-33
			c34.8-4.4,70.1-4.4,104.9,0c15.4,4.7,27.4,16.8,31.7,32.3C6061.2,10669.4,6058.9,10713.5,6058.9,10762.1z"/>
		<path class="st0" d="M5838.6,10678.1c0,88.9,0,88.9-90.6,88.9c-84.8,0-84.8,0-84.8-88.9c0-86.4,0-86.4,93.6-86.4
			C5838.6,10591.9,5838.6,10591.9,5838.6,10678.1z"/>
		<path class="st0" d="M5615.6,10680.7c0,86.3,0,86.3-93.3,86.3c-81.3-0.1-81.3-0.1-81.3-91.2c0-83.7,0-83.7,96.6-83.7
			C5615.6,10591.9,5615.6,10591.9,5615.6,10680.7z"/>
		<path class="st0" d="M5303,10767c-85.7,0-85.7,0-85.7-87.8c0-87.8,0-87.5,92.3-87.5c82.8,0,82.8,0,82.8,90.8
			C5392.5,10767,5392.5,10767,5303,10767z"/>
		<path class="st0" d="M5169.8,10685.2c-1,95.1,4.3,78.3-99.7,79.4c-75.8,0.8-75.8,0-75.6-91.9c0-81,0-81,99.8-80.8
			C5169.8,10592,5169.8,10592,5169.8,10685.2z"/>
		<path class="st0" d="M9403.4,10460.3c-1.2,89.3,12.3,82.8-89.9,83.7c-82.8,0-82.8,0-82.8-91.2c0-84.1,0-84.1,96.6-83.9
			C9403.4,10368.9,9403.4,10368.9,9403.4,10460.3z"/>
		<path class="st0" d="M9095.2,10368.8c87.5,0,87.5,0,87.5,86.1c0,89.2,0,89.2-90.3,89.2c-84.9,0-84.9,0-84.9-88.8
			C9007.5,10368.8,9007.5,10368.8,9095.2,10368.8z"/>
		<path class="st0" d="M8511.5,10458.6c-1.4,90.8,13,85-88.2,85.3c-84.8,0-84.8,0-84.8-89.6c0-85.6,0-85.6,95.1-85.6
			C8511.7,10368.9,8511.7,10368.9,8511.5,10458.6z"/>
		<path class="st0" d="M8291,10456.3c-0.7,100.2,5.2,84.8-93.7,85.2c-89.6,0-81,10.6-81.4-91.4c0-81.3,0-81.3,93.7-81.3
			C8291,10368.9,8291,10368.9,8291,10456.3z"/>
		<path class="st0" d="M7311.7,10544.1c-87.8,0-87.8,0-87.8-86.5c0-88.8,0-88.9,91.9-88.6c95,0,80.1-4.7,80.9,92.2
			C7397.4,10544.1,7396.9,10544.1,7311.7,10544.1z"/>
		<path class="st0" d="M8513.9,11125.4c0,87.5,0,87.5-91.9,87.5c-82.8,0-82.8,0-82.8-90.3c0-85,0-85,94.8-84.9
			C8513.9,11037.7,8513.9,11037.7,8513.9,11125.4z"/>
		<path class="st0" d="M7396.9,11128.8c-1.2,89.7,12.6,83.7-89.6,84.1c-82.8,0-82.8,0-82.8-91c0-84.3,0-84.3,96.6-84.2
			C7396.9,11037.7,7396.9,11037.7,7396.9,11128.8z"/>
		<path class="st0" d="M7087.5,11037.7c88.6,0,88.6,0,88.6,84.9c0,90.3,0,90.3-89.2,90.3c-86,0-86,0-86-87.7
			S7000.8,11037.7,7087.5,11037.7z"/>
		<path class="st0" d="M6059.1,11125.9c-1.4,91.9,13.8,86.8-86.6,86.8c-96.6,0-85.7,6.8-86.3-93.5c0-81.7,0-81.9,93.3-81.6
			S6058,11034.7,6059.1,11125.9z"/>
		<path class="st0" d="M5838.6,11123.7c0,89.2,0,89.2-90.3,89.2c-85,0-85,0-85-88.6s0-86.7,93.3-86.5
			C5838.6,11037.7,5838.6,11037.7,5838.6,11123.7z"/>
		<path class="st0" d="M5530.3,11037.7c85.3,0,85.6,0,85.2,89c0,98.8,5.5,82.8-95.2,83.7c-88.5,0-79.4,9.7-79.8-93.2
			C5440.2,11037.7,5441,11037.7,5530.3,11037.7z"/>
		<path class="st0" d="M9174.3,10987.3c-46.5,0-90.6,1.1-134.5-0.8c-10.2,0-27.6-10.9-28.7-17.7c-2.5-44.2-2.7-88.5-0.7-132.7
			c0-7,13.8-13.8,22.9-19.7c4.1-2.6,10.8-1.1,16.3-1.5C9184.5,10804,9197.2,10820.4,9174.3,10987.3z"/>
		<path class="st0" d="M8784.6,10895.8c0-81.3,0-81.3,98.6-81c76.9,0,76.9,0,76.6,96.6c0,78.4,0,78.4-95.7,78.3
			C8784.4,10989.8,8784.4,10989.8,8784.6,10895.8z"/>
		<path class="st0" d="M8736.8,10899.7c0,90.3,0,90.3-89.2,90.3c-86.1,0-86.1,0-86-87.5s0-87.8,92.1-87.7
			C8736.8,10814.8,8736.8,10814.8,8736.8,10899.7z"/>
		<path class="st0" d="M7396.9,10901.1c-1.5,95.1,13.8,88.5-90.3,88.8c-82.8,0-82.8,0-82.8-91.5c0-83.7,0-83.7,91.4-83.5
			C7396.9,10814.8,7396.9,10814.8,7396.9,10901.1z"/>
		<path class="st0" d="M7176.1,10904.1c0,86,0,86-93.6,85.9c-81.7,0-81.7,0-81.6-92.1c0-82.8,0-82.8,96.6-82.8
			C7176.3,10814.8,7176.3,10814.8,7176.1,10904.1z"/>
		<path class="st0" d="M5836.2,10905.3c-1.2,90.3,12.7,84.2-88.9,84.5c-84.1,0-84.1,0-84.1-90.3c0-84.9,0-84.9,95.8-84.8
			C5836.3,10814.8,5836.3,10814.8,5836.2,10905.3z"/>
		<path class="st0" d="M5530.2,10990c-89.7,0-89.7,0-89.9-83.8c0-91.4,0-91.4,88.3-91.4c88.3,0,87,0,87,86.7
			S5615.6,10990,5530.2,10990z"/>
		<path class="st0" d="M5301,10987.7c-91.1-1.1-82.8,10.9-82.8-89.9c0-82.8,0-82.8,91.7-82.8c82.8,0,83.8,0,82.8,91
			C5392.3,11002,5396.6,10986.1,5301,10987.7z"/>
		<path class="st0" d="M8650.4,7916.4c86.4,0,86.4,0,86.4,87.2c0,87.2,0,88.1-91.5,88.1c-83.8,0-83.8,0-83.7-89.9
			C8561.6,7916.4,8561.6,7916.4,8650.4,7916.4z"/>
		<path class="st0" d="M7396.9,8006.5c-1.4,90.7,12.8,84.8-88.3,85c-84.6,0-84.6,0-84.6-89.7c0-85.4,0-85.4,95.2-85.4
			C7396.9,7916.5,7396.9,7916.5,7396.9,8006.5z"/>
		<path class="st0" d="M7090.2,8091.7c-89.2,0-89.2,0-89.2-84.5c0-90.8,0-90.8,88.9-90.8c86.3,0,86.3,0,86.3,87.4
			C7176.1,8091.1,7176.1,8091.7,7090.2,8091.7z"/>
		<path class="st0" d="M6059.1,8006.8c-1.2,90.4,12.7,84.5-88.6,84.8c-84.3,0-84.3,0-84.3-90.1c0-85,0-85,95.7-85
			C6059.3,7916.5,6059.3,7916.5,6059.1,8006.8z"/>
		<path class="st0" d="M5747.7,8089.3c-91.5-1-84.1,11.3-84.3-88.9c0-84.1,0-84.1,91-84.1c84.2,0,84.5,0,84.1,90.3
			C5838.1,8103.6,5842.7,8087.8,5747.7,8089.3z"/>
		<path class="st0" d="M5525.9,7916.4c89.6,0,89.6,0,89.7,84.1c0,91.2,0,91.4-88.2,91.1c-96.6,0-86.6,7.2-87-92.1
			C5440,7916.5,5441,7916.5,5525.9,7916.4z"/>
		<path class="st0" d="M5392.7,8002.8c0,88.9,0,88.9-90.6,88.9c-84.8,0-84.8,0-84.8-88.9c0-86.4,0-86.4,93.6-86.4
			C5392.7,7916.5,5392.7,7916.5,5392.7,8002.8z"/>
		<path class="st0" d="M8957.5,7785.1c-1.4,89.3,12.3,82.8-90,82.8c-82.8,0-82.8,0-82.8-91.4c0-83.9,0-83.9,96.6-83.8
			C8957.5,7694.1,8957.5,7694.1,8957.5,7785.1z"/>
		<path class="st0" d="M8736.8,7778.5c0,90.3,0,90.3-89.2,90.3c-86.1,0-86.1,0-86-87.7s0-87.7,92.1-87.7
			C8736.8,7694.1,8736.8,7694.1,8736.8,7778.5z"/>
		<path class="st0" d="M8424.6,7866.4c-92.5-1.1-85.6,11.9-85.9-87.4c0-85.6,0-85.6,89.4-85.6c85.7,0,86,0,85.6,88.8
			C8513.5,7880.4,8518,7865,8424.6,7866.4z"/>
		<path class="st0" d="M7312.7,7868.8c-88.8,0-88.8,0-88.8-85.7c0-89.6,0-89.7,91-89.4c95.7,0,81-4.8,81.9,91.4
			C7397.4,7868.6,7396.9,7868.6,7312.7,7868.8z"/>
		<path class="st0" d="M7176.1,7787.5c0,81.4,0,81.4-98.1,81.3c-77.2,0-77.2,0-77-96.6c0-79,0-79,101-78.7
			C7176.3,7694.1,7176.3,7694.1,7176.1,7787.5z"/>
		<path class="st0" d="M5973.8,7694.1c98,0,85.2-6.1,85,88.1c-0.1,94.1,13.8,87.1-86,87.1c-96.6,0-86,6.6-86.6-93.3
			C5885.9,7694.1,5886.3,7694.1,5973.8,7694.1z"/>
		<path class="st0" d="M5838.6,7780.4c0,88.3,0,88.3-91.2,88.3c-84.1,0-84.1,0-84.1-89.6c0-85.7,0-85.7,94.1-85.7
			C5838.6,7694.1,5838.6,7694.1,5838.6,7780.4z"/>
		<path class="st0" d="M5525.9,7694.1c89.6,0,89.6,0,89.7,83.9c0,91.4,0,91.5-88.2,91.2c-96.6,0-86.4,6.8-87-92.1
			C5440,7694.1,5441,7694.1,5525.9,7694.1z"/>
		<path class="st0" d="M9403.4,8230.8c-1.4,89.4,12.4,82.8-89.9,83.7c-82.8,0-82.8,0-82.8-91.1c0-84.1,0-84.1,96.6-83.9
			C9403.4,8139.5,9403.4,8139.5,9403.4,8230.8z"/>
		<path class="st0" d="M9095.2,8139.5c87.5,0,87.5,0,87.5,86c0,89.2,0,89.2-90.3,89.2c-85,0-85,0-84.9-94.3
			C9007.5,8139.5,9007.5,8139.5,9095.2,8139.5z"/>
		<path class="st0" d="M8874.4,8139.5c85.3,0,85.7,0,85.2,89c0,98.8,5.5,82.8-95.1,83.7c-88.6,0-79.5,9.5-79.9-93.2
			C8784.3,8139.3,8784.6,8139.3,8874.4,8139.5z"/>
		<path class="st0" d="M8647.5,8312.3c-92.5-1-85.6,11.9-85.9-87.4c0-85.6,0-85.6,89.4-85.4c85.7,0,86,0,85.7,88.8
			C8736.4,8326.4,8741,8310.9,8647.5,8312.3z"/>
		<path class="st0" d="M8430,8139.5c83.9,0,83.9,0,83.9,89.7c0,85.6,0,85.6-94,85.4c-81.3,0-81.3,0-81.3-92.3
			C8338.7,8139.3,8338.7,8139.3,8430,8139.5z"/>
		<path class="st0" d="M7396.9,8228.1c-1.4,91.8,13,86.1-87.1,86.4c-85.9,0-85.9,0-85.9-88.3c0-88.3,0-87,93.9-86.7
			C7411.6,8139.7,7395.6,8135.9,7396.9,8228.1z"/>
		<path class="st0" d="M7082.3,8315.3c-81.4,0-81.4,0-81.3-92.2c0-82.8,0-82.8,96.6-82.8c78.5,0,78.5,0,78.4,95.1
			C7176,8315.3,7176,8315.3,7082.3,8315.3z"/>
		<path class="st0" d="M6282.2,8228.1c-1.4,91.8,12.8,86.1-87,86.4c-86.1,0-86.1,0-86-93.9c0-81.3,0-81.4,93.7-81.2
			C6296.7,8139.7,6280.8,8135.9,6282.2,8228.1z"/>
		<path class="st0" d="M5969.3,8312.3c-90.7-1-82.8,10.9-82.8-90.3c0-82.8,0-82.8,92.3-82.8c82.8,0,82.8,0,82.8,91.5
			C6061.1,8326.6,6065.4,8310.8,5969.3,8312.3z"/>
		<path class="st0" d="M5610.4,8308c-18.6,1.7-32.9,3.9-47.2,4.1c-131.7,3-136.7-1.4-121.1-132.8c5.7-18.4,20.3-32.8,38.8-38.2
			c132.4-15,134.7-12,132.2,121.8C5613,8275.7,5611.6,8288.5,5610.4,8308z"/>
		<path class="st0" d="M5392.7,8229.9c0,84.9,0,84.9-94.8,84.8c-80.5,0-80.5,0-80.5-93.2c0-82.8,0-82.8,97.7-82
			C5392.7,8139.5,5392.7,8139.5,5392.7,8229.9z"/>
		<path class="st0" d="M5089.6,8139.5c80.2,0,80.2,0,80.2,93.5c0,81.9,0,81.9-97.9,81.7c-77.6,0-77.6,0-77.4-96.6
			C4994.6,8139.3,4994.6,8139.3,5089.6,8139.5z"/>
		<path class="st0" d="M9180.5,8003.3c-1.5,92.6,13.8,88.2-85.2,88.2c-99,0-87.2,7.2-87.8-92.1c0-82.8,0-82.8,91.9-82.8
			C9180.5,7916.5,9180.5,7916.5,9180.5,8003.3z"/>
		<path class="st0" d="M8872.2,7916.4c87.5,0,87.5,0,87.5,86.1c0,89.2,0,89.2-90.3,89.2c-85,0-85,0-84.9-94.3
			C8784.6,7916.4,8784.6,7916.4,8872.2,7916.4z"/>
		<path class="st0" d="M6778,7328.6c0-81.2,0-81.2,99.5-81c75.8,0,76.2,0,75.5,93.2c0,95.5,6.2,78.4-104.8,79.6
			C6777.9,7421.1,6777.9,7420.4,6778,7328.6z"/>
		<path class="st0" d="M6641.1,7420.5c-92.3-1.1-85.7,12-86-87.2c0-85.7,0-85.7,89.3-85.7c85.9,0,86.1,0,85.9,88.6
			C6729.9,7434.6,6734.4,7419,6641.1,7420.5z"/>
		<path class="st0" d="M6507.4,7335.9c0,87,0,87-92.5,87c-82.8,0-82.8,0-82.8-91c0-84.5,0-84.5,95.4-84.3
			C6507.4,7247.7,6507.4,7247.7,6507.4,7335.9z"/>
		<path class="st0" d="M6284.4,7335.9c0,87,0,87-92.5,87c-82.8,0-82.8,0-82.8-91c0-84.5,0-84.5,95.4-84.3
			C6284.4,7247.7,6284.4,7247.7,6284.4,7335.9z"/>
		<path class="st0" d="M6062.2,7335.2c0,87.7,0,87.7-91.9,87.7c-82.8,0-82.8,0-82.8-90.3c0-85.2,0-85.2,94.8-85
			C6062.2,7247.7,6062.2,7247.7,6062.2,7335.2z"/>
		<path class="st0" d="M7842.9,7116.2c-1.2,89.2,12.3,82.8-89.9,83.7c-82.8,0-82.8,0-82.8-91.2c0-84.1,0-84.1,96.6-83.9
			C7842.9,7024.8,7842.9,7024.8,7842.9,7116.2z"/>
		<path class="st0" d="M7527.6,7199.8c-80.8,0-80.8,0-80.8-92.9c0-82.8,0-82.8,97.5-82.8c78,0,78,0,77.7,95.8
			C7622,7200,7622,7200,7527.6,7199.8z"/>
		<path class="st0" d="M7399.1,7110.9c0,89,0,89-90.4,88.9c-84.8,0-84.8,0-84.8-88.8c0-86.4,0-86.4,93.5-86.4
			C7399.1,7024.8,7399.1,7024.8,7399.1,7110.9z"/>
		<path class="st0" d="M7000.8,7108.7c0-84.2,0-84.2,95.7-84.1c79.6,0,79.6,0,79.5,94.1c0,81.3,0,81.3-98.3,81
			C7000.8,7199.7,7000.8,7199.7,7000.8,7108.7z"/>
		<path class="st0" d="M6953.2,7111.9c0,88.1,0,88.1-91.5,87.9c-83.7,0-83.7,0-83.7-89.9c0-85.4,0-85.4,94.3-85.3
			C6953.2,7024.8,6953.2,7024.8,6953.2,7111.9z"/>
		<path class="st0" d="M6730.3,7109.7c0,90.3,0,90.3-89.2,90.1c-86,0-86,0-86-87.5s0-87.7,92.1-87.7
			C6730.3,7024.7,6730.3,7024.7,6730.3,7109.7z"/>
		<path class="st0" d="M8734.5,7556.8c-1.4,95.1,13.8,88.5-90.1,88.9c-82.8,0-82.8,0-82.8-91.5c0-83.7,0-83.7,91.4-83.7
			C8734.5,7470.7,8734.5,7470.7,8734.5,7556.8z"/>
		<path class="st0" d="M8427.7,7645.8c-89,0-89,0-89.2-84.5c0-90.8,0-90.8,89-90.8c86.3,0,86.3,0,86.3,87.4
			C8513.9,7645.3,8513.9,7645.7,8427.7,7645.8z"/>
		<path class="st0" d="M8291,7559.1c-0.8,99.4,5.1,83.5-94.8,84.1c-88.9,0-79.9,9.9-80.3-92.6c0-80.1,0-80.1,95-80.1
			C8291,7470.7,8291,7470.7,8291,7559.1z"/>
		<path class="st0" d="M7980.9,7470.5c87.4,0,87.7,0,87.2,87.1c0,100.5,5.5,85.2-93.2,85.6c-90,0-81.4,10.6-81.9-91.1
			C7892.4,7470.5,7892.8,7470.5,7980.9,7470.5z"/>
		<path class="st0" d="M7310.9,7645.8c-87,0-87,0-87-87.5s0-88.1,92.8-87.7s79.2-4.8,80.1,93.2
			C7397.4,7645.8,7396.9,7645.8,7310.9,7645.8z"/>
		<path class="st0" d="M7176.1,7556.1c0,89.2,0,89.2-90.3,89.2c-84.9,0-84.9,0-84.9-88.8c0-88.8,0-86.6,93.2-86.6
			C7176.1,7470.7,7176.1,7470.7,7176.1,7556.1z"/>
		<path class="st0" d="M6504.7,7640.6c-24.6,1.4-39.2,2.6-54,2.8c-126.6,1.9-136.7-9.1-116.9-136.9c4.6-15.6,16.5-28,32-33.1
			c34.9-4.5,70.2-4.5,105,0c15.5,4,27.9,15.5,33,30.6C6507.1,7547.5,6504.7,7591.6,6504.7,7640.6z"/>
		<path class="st0" d="M6194.3,7643.5c-92.1-1-84.8,11.5-85-88.2c0-84.8,0-84.8,90.3-84.8c84.9,0,85.2,0,84.8,89.6
			C6284,7657.4,6289,7642,6194.3,7643.5z"/>
		<path class="st0" d="M5966.9,7645.8c-80.8,0-80.8,0-80.8-92.9c0-82.8,0-82.8,97.5-82.8c78,0,78,0,77.9,95.8
			C6061.3,7645.8,6061.3,7645.8,5966.9,7645.8z"/>
		<path class="st0" d="M5748.8,7470.5c89.7,0,89.7,0,89.7,83.9c0,91.4,0,91.5-88.2,91.2c-96.6,0-86.4,6.8-87-92.1
			C5663,7470.7,5663.4,7470.5,5748.8,7470.5z"/>
		<path class="st0" d="M8431.3,7247.6c95,1,79.1-5.8,80.1,98.7c0.7,76.6,0,76.6-91.2,76.6c-81.6,0-81.6,0-81.6-92.9
			C8338.7,7247.6,8338.7,7247.6,8431.3,7247.6z"/>
		<path class="st0" d="M8291,7335.2c0,88.1,0,88.1-91.5,88.1c-83.8,0-83.8,0-83.8-89.9c0-85.4,0-85.4,94.4-85.4
			C8291,7247.7,8291,7247.7,8291,7335.2z"/>
		<path class="st0" d="M7892.7,7333.4c0-85.9,0-85.9,93.9-85.9c81.4,0,81.4,0,81.4,92.2c0,82.8,0,82.8-96.6,82.8
			C7892.7,7422.8,7892.7,7422.8,7892.7,7333.4z"/>
		<path class="st0" d="M7754.7,7420.5c-91.8-1-84.5,11.5-84.8-88.5c0-84.5,0-84.5,90.4-84.5c84.8,0,85,0,84.6,89.7
			C7844.5,7434.4,7849.5,7419,7754.7,7420.5z"/>
		<path class="st0" d="M7534.5,7420.5c-93.9-1.2-87.2,12.6-87.5-85.7c0-87.2,0-87.2,93.2-87.2c82,0,82,0,81.9,92.5
			C7622,7420.5,7622,7420.5,7534.5,7420.5z"/>
		<path class="st0" d="M7223.9,7330.7c0-82.8,0-82.8,96.6-82.8c78.7,0,78.7,0,78.4,95.1c0,80.3,0,80.3-99.2,80.2
			C7223.8,7422.6,7223.8,7422.6,7223.9,7330.7z"/>
		<path class="st0" d="M7087.7,7422.9c-86.7,0-86.7,0-86.7-87s0-88.3,91.4-88.3c83.9,0,83.9,0,83.8,89.9
			C7176.1,7422.9,7176.1,7422.9,7087.7,7422.9z"/>
		<path class="st0" d="M9540.8,9206.4c-87,0-87,0-87-87.4c0-87.4,0-88.1,92.8-87.8c92.8,0.3,79.2-4.7,80.1,93.2
			C9626.9,9206.4,9626.2,9206.4,9540.8,9206.4z"/>
		<path class="st0" d="M9405.6,9117.2c0,89.2,0,89.2-90.1,89.2c-85,0-85,0-85-88.6c0-86.6,0-86.6,93-86.6
			C9405.6,9031.2,9405.6,9031.2,9405.6,9117.2z"/>
		<path class="st0" d="M7842.9,9120.8c-1.4,91,13,85.3-87.9,85.6c-85.2,0-85.2,0-85-94.8c0-80.5,0-80.5,94.7-80.3
			C7842.9,9031.2,7842.9,9031.2,7842.9,9120.8z"/>
		<path class="st0" d="M7534.4,9031.2c87.8,0,87.9,0,87.7,86.6c0,100.9,5.7,85.7-92.8,86.1c-90,0-82,11-82.8-90.7
			C7446.7,9031.2,7447,9031.2,7534.4,9031.2z"/>
		<path class="st0" d="M6945.6,9203.9h-134.3c-3.7,0-10.4,0-10.6-0.8c-9.8-40-16.8-80.7-20.8-121.8c-0.8-15.9,17.9-33,28.6-49
			c1.1-1.8,7,0,10.8-0.8C6953.4,9019.3,6965.4,9034.8,6945.6,9203.9z"/>
		<path class="st0" d="M6730.3,9120.4c0,86.1,0,86.1-93.5,86c-81.9,0-81.9,0-81.7-91.8c0-83.5,0-83.5,96.6-82.8
			C6730.3,9031.3,6730.3,9031.3,6730.3,9120.4z"/>
		<path class="st0" d="M5167.4,9120.9c-1.4,90.8,13,85-88.1,85.4c-84.9,0-84.9,0-84.9-89.4c0-85.9,0-85.9,94.8-85.7
			C5167.4,9031.3,5167.4,9031.3,5167.4,9120.9z"/>
		<path class="st0" d="M4861.2,9031.2c85.2,0,85.2,0,85,88.5c-0.1,88.5,0,86.8-92.6,86.7c-82.8,0-82.8,0-82.8-91.1
			C4771.5,9031.2,4771.5,9031.2,4861.2,9031.2z"/>
		<path class="st0" d="M9626.3,8899.4c-1.4,89.7,12.6,83.7-89.4,84.1c-83.5,0-83.7,0-83.5-90.8c0-84.5,0-84.5,96.6-84.3
			C9626.3,8808.4,9626.3,8808.4,9626.3,8899.4z"/>
		<path class="st0" d="M9318,8983.4c-87.5,0-87.5,0-87.5-86c0-89.2,0-89.2,90.6-89.2c84.6,0,84.6,0,84.6,88.9
			C9405.6,8983.4,9405.6,8983.4,9318,8983.4z"/>
		<path class="st0" d="M9626.3,9345.6c-1.2,89.3,12.4,82.8-89.9,83.7c-82.8,0-82.8,0-82.8-91.4c0-83.9,0-83.9,96.6-83.8
			C9626.3,9254,9626.3,9254,9626.3,9345.6z"/>
		<path class="st0" d="M9318.1,9254c87.5,0,87.5,0,87.5,86.1c0,89.2,0,89.2-90.3,89c-84.9,0-84.9,0-84.9-88.8
			C9230.4,9254,9230.4,9254,9318.1,9254z"/>
		<path class="st0" d="M9182.7,9348.8c0,80.8,0,80.8-99,80.5c-76.5,0-76.5,0-76.2-96.6c0-78.1,0-78.1,101.9-77.9
			C9182.8,9254,9182.8,9254,9182.7,9348.8z"/>
		<path class="st0" d="M8872.9,9429.3c-88.3,0-88.3,0-88.3-85.2c0-90,0-90,89.7-90c85.4,0,85.4,0,85.4,88.1
			C8959.7,9430.3,8959.7,9429.3,8872.9,9429.3z"/>
		<path class="st0" d="M8657.3,9254c80.2,0,80.2,0,80.1,93.5c0,82,0,82-97.7,81.7c-77.6,0-77.6,0-77.4-96.6
			C8561.6,9254,8561.6,9254,8657.3,9254z"/>
		<path class="st0" d="M8421.5,9429.3c-82.8,0-82.8,0-82.8-90.7c0-84.6,0-84.6,95.2-84.5c80.2,0,80.2,0,80.1,93.6
			C8513.7,9429.4,8513.7,9429.4,8421.5,9429.3z"/>
		<path class="st0" d="M8291,9340.9c0,88.5,0,88.5-91.1,88.3c-84.2,0-84.2,0-84.2-89.4c0-85.9,0-85.9,94.1-85.7
			C8291,9254,8291,9254,8291,9340.9z"/>
		<path class="st0" d="M7892.7,9336.8c0-82.8,0-82.8,96.6-82.8c78.7,0,78.7,0,78.5,95.1c0,80.3,0,80.3-99.4,80.1
			C7892.7,9429.2,7892.7,9429.2,7892.7,9336.8z"/>
		<path class="st0" d="M7755.4,9254c89.6,0,89.6,0,89.7,83.9c0,91.2,0,91.5-88.2,91.2c-96.6,0-86.4,6.8-87-92.1
			C7669.5,9254,7669.9,9254,7755.4,9254z"/>
		<path class="st0" d="M6728.1,9336.8c-1.7,98,13.8,91.5-87.2,91.9c-85.7,0-85.7,0-85.7-88.6s0-86.7,88.5-86.5
			C6739.3,9254,6727,9248.9,6728.1,9336.8z"/>
		<path class="st0" d="M6423.4,9254c83.9,0,83.9,0,83.9,89.7c0,85.6,0,85.6-94,85.4c-81.3,0-81.3,0-81.2-92.3
			C6332.2,9254,6332.2,9254,6423.4,9254z"/>
		<path class="st0" d="M6199.2,9254c85.2,0,85.2,0,85.2,88.5c0,88.5,0,86.8-92.8,86.7c-82.8,0-82.8,0-82.8-91.1
			C6109.2,9254,6109.2,9254,6199.2,9254z"/>
		<path class="st0" d="M5981.4,9254c80.2,0,80.2,0,80.1,93.5c0,82,0,82-97.7,81.7c-77.7,0-77.7,0-77.6-96.6
			C5886.3,9254,5886.3,9254,5981.4,9254z"/>
		<path class="st0" d="M5838.6,9339c0,90.3,0,90.3-89.2,90.3c-86.1,0-86.1,0-86.1-87.5s0-87.7,92.2-87.7
			C5838.6,9254,5838.6,9254,5838.6,9339z"/>
		<path class="st0" d="M5529.2,9254c86.4,0,86.4,0,86.4,87.2s0,88.1-91.5,87.9c-83.8,0-83.8,0-83.8-89.9
			C5441,9254,5441,9254,5529.2,9254z"/>
		<path class="st0" d="M5305.9,9429.3c-88.5,0-88.5,0-88.5-85.2c0-90,0-90,89.7-90c85.6,0,85.6,0,85.6,88.1
			C5392.7,9430.3,5392.5,9429.3,5305.9,9429.3z"/>
		<path class="st0" d="M5082.1,9254c87.4,0,87.4,0,87.5,86.1c0,89.2,0,89.2-90.4,89c-84.9,0-84.9,0-84.9-88.8
			C4994.4,9254,4994.4,9254,5082.1,9254z"/>
		<path class="st0" d="M4946.7,9343.4c0,86,0,86-93.5,85.9c-81.7,0-81.7,0-81.7-92.5c0-82.8,0-82.8,96.6-82.8
			C4946.8,9254,4946.8,9254,4946.7,9343.4z"/>
		<path class="st0" d="M9403.4,8453.4c-1.4,89.4,12.4,82.8-89.9,83.8c-82.8,0-82.8,0-82.8-91.2c0-84.1,0-84.1,96.6-83.9
			C9403.4,8362.4,9403.4,8362.4,9403.4,8453.4z"/>
		<path class="st0" d="M9097.5,8362.4c85.2,0,85.2,0,85.2,88.5c0,88.5,0,86.7-92.6,86.7c-82.8,0-82.8,0-82.8-91.1
			C9007.5,8362.2,9007.5,8362.2,9097.5,8362.4z"/>
		<path class="st0" d="M8508.6,8530.9c-18.6,1.7-32.9,3.9-47.2,4.1c-131.7,3-136.7-1.4-120.9-132.8c5.7-18.5,20.2-32.8,38.8-38.2
			c132.2-15,134.6-12,132.2,121.8C8511.3,8498.6,8509.9,8511.5,8508.6,8530.9z"/>
		<path class="st0" d="M8291,8447.4c0,90.1,0,90.1-89.3,90.1c-86,0-86,0-86-87.7c0-87.7,0-87.7,92.2-87.5
			C8291,8362.4,8291,8362.4,8291,8447.4z"/>
		<path class="st0" d="M7311.6,8362.4c97.9,0,85-6.2,85,87.9c0,92.1,13.8,87.1-86.1,87.1c-96.6,0-85.9,6.8-86.4-93.3
			C7223.6,8362.4,7224,8362.4,7311.6,8362.4z"/>
		<path class="st0" d="M7176.1,8447.3c0,90.3,0,90.3-89.2,90.3c-86,0-86,0-86-87.5s0-87.8,92.1-87.7
			C7176.1,8362.4,7176.1,8362.4,7176.1,8447.3z"/>
		<path class="st0" d="M6505.1,8452c-1.5,91,12.8,85.2-88.1,85.6c-85,0-85,0-84.9-89.4c0-85.9,0-85.9,94.7-85.7
			C6505.1,8362.4,6505.1,8362.4,6505.1,8452z"/>
		<path class="st0" d="M6202.1,8362.4c82.8,0,82.8,0,82.8,92.1c0,96.6,4.8,79.9-98.3,80.6c-84.8,0-76.3,8.4-76.7-90.7
			C6109,8362.2,6109.2,8362.2,6202.1,8362.4z"/>
		<path class="st0" d="M5390.3,8452.5c-1.4,90.6,12.8,84.6-88.5,85c-84.5,0-84.5,0-84.5-90c0-85.3,0-85.3,95.4-85.2
			C5390.3,8362.4,5390.3,8362.4,5390.3,8452.5z"/>
		<path class="st0" d="M5082.1,8362.4c87.5,0,87.5,0,87.7,86c0,89.2,0,89.2-90.4,89.2c-85,0-85,0-84.9-94.3
			C4994.6,8362.4,4994.6,8362.4,5082.1,8362.4z"/>
		<path class="st0" d="M8062.8,8976.8c-18.8,1.8-33.1,3.9-47.5,4.3c-131.7,2.9-136.7-1.5-120.6-133.2c5.8-18.4,20.4-32.6,38.9-37.8
			c132.1-14.9,134.4-11.9,132,121.8C8065.4,8944.8,8063.7,8957.6,8062.8,8976.8z"/>
		<path class="st0" d="M7756.5,8983.4c-86.7,0-86.7,0-86.7-86.8s0-88.5,91.5-88.3c83.8,0,83.8,0,83.8,89.7
			C7844.9,8983.4,7844.9,8983.4,7756.5,8983.4z"/>
		<path class="st0" d="M7446.8,8891.2c0-82.8,0-82.8,96.6-82.8c78.7,0,78.7,0,78.4,95.1c0,80.3,0,80.3-99.2,80.1
			C7446.7,8983.3,7446.7,8983.3,7446.8,8891.2z"/>
		<path class="st0" d="M7313.8,8808.3c85.4,0,85.7,0,85.3,89c0,98.8,5.4,82.8-95.2,83.7c-88.6,0-79.5,9.7-79.8-93.2
			C7223.6,8808.3,7224,8808.3,7313.8,8808.3z"/>
		<path class="st0" d="M7090.8,8808.3c85.4,0,85.7,0,85.3,89c0,98.8,5.4,82.8-95.2,83.7c-88.6,0-79.5,9.7-79.8-93.2
			C7000.8,8808.3,7000.8,8808.3,7090.8,8808.3z"/>
		<path class="st0" d="M6866.4,8983.4c-88.3,0-88.3,0-88.3-85.2c0-90,0-90,89.7-90c85.4,0,85.4,0,85.4,88.1
			C6953.2,8984.4,6953.2,8983.4,6866.4,8983.4z"/>
		<path class="st0" d="M6730.3,8895.1c0,88.3,0,88.3-91.1,88.3c-84.1,0-84.1,0-84.1-89.4c0-85.9,0-85.9,94-85.7
			C6730.3,8808.3,6730.3,8808.3,6730.3,8895.1z"/>
		<path class="st0" d="M5079.9,8983.4c-85.4,0-85.4,0-85.4-88.9c0-86.4,0-86.6,94.3-86.3c94.3,0.3,77.7-4.1,78.5,94.7
			C5168,8983.4,5167.4,8983.4,5079.9,8983.4z"/>
		<path class="st0" d="M4946.7,8895.1c0,88.2,0,88.2-91.1,88.2c-84.1,0-84.1,0-84.1-89.6c0-85.7,0-85.7,94.1-85.6
			C4946.7,8808.3,4946.7,8808.3,4946.7,8895.1z"/>
		<path class="st0" d="M9403.4,8675.9c-1.4,90.3,12.6,84.2-89,84.6c-84.1,0-84.1,0-83.9-90.4c0-84.9,0-84.9,95.8-84.8
			C9403.4,8585.3,9403.4,8585.3,9403.4,8675.9z"/>
		<path class="st0" d="M9093.5,8758.3c-92.3-1.1-85.7,12-86-87.4c0-85.6,0-85.6,89.3-85.6c85.9,0,86.1,0,85.9,88.5
			C9181.9,8772.2,9186.8,8757,9093.5,8758.3z"/>
		<path class="st0" d="M8282.9,8757.9h-134.3c-3.7,0-8.7,0.8-10.9-1.1c-44.9-38-13.8-88.6-19.7-133.1c-1.4-11.2,21.7-25.4,33.8-37.8
			c1-1,3.6,0,5.4,0C8291.2,8574,8304.1,8590.6,8282.9,8757.9z"/>
		<path class="st0" d="M7973.5,8760.5c-80.8,0-80.8,0-80.8-92.9c0-82.8,0-82.8,97.5-82.8c78,0,78,0,77.9,95.8
			C8067.9,8760.6,8067.9,8760.6,7973.5,8760.5z"/>
		<path class="st0" d="M7396.9,8676.7c-1.2,89.4,12.4,82.8-89.9,83.8c-82.8,0-82.8,0-82.8-91.2c0-84.1,0-84.1,96.6-83.9
			C7396.9,8585.5,7396.9,8585.5,7396.9,8676.7z"/>
		<path class="st0" d="M7087.5,8585.3c88.6,0,88.6,0,88.6,84.9c0,90.3,0,90.3-89.2,90.3c-86.1,0-86.1,0-86-93.2
			C7000.8,8585.3,7000.8,8585.3,7087.5,8585.3z"/>
		<path class="st0" d="M6728.1,8674.2c-1.4,91.8,12.8,86.1-87.1,86.6c-85.9,0-85.9,0-85.9-88.5c0-88.5,0-87,93.9-86.7
			C6742.8,8585.9,6726.7,8581.9,6728.1,8674.2z"/>
		<path class="st0" d="M6419.6,8585.3c87.8,0,88.1,0,87.8,86.5c0,100.9,5.5,85.7-92.8,86.1c-90,0-82,11-82.8-90.7
			C6331.9,8585.3,6332.2,8585.3,6419.6,8585.3z"/>
		<path class="st0" d="M5385,8757.9h-134.3c-3.7,0-10.5,0-10.6-0.8c-9.7-40.1-16.7-80.8-20.7-121.9c-0.8-15.9,17.9-32.9,28.6-48.9
			c1.1-1.8,7,0,10.8-0.8C5392.7,8573.6,5404.8,8589.2,5385,8757.9z"/>
		<path class="st0" d="M5080,8760.5c-85.6,0-85.6,0-85.6-88.1c0-88.1,0-87.2,92.6-87.1c82.8,0,82.8,0,82.8,91
			C5169.6,8760.5,5169.6,8760.5,5080,8760.5z"/>
	</g>
</g>
</svg>
