<?xml version="1.0" encoding="utf-8"?>
<!-- Generator: Adobe Illustrator 24.2.0, SVG Export Plug-In . SVG Version: 6.00 Build 0)  -->
<svg version="1.1" id="Layer_1" xmlns="http://www.w3.org/2000/svg" xmlns:xlink="http://www.w3.org/1999/xlink" x="0px" y="0px"
	 viewBox="0 0 122 124" style="enable-background:new 0 0 122 124;" xml:space="preserve">
<style type="text/css">
	.st0{fill:#151515;}
</style>
<g id="Layer_2_1_">
	<g id="Layer_1-2">
		<rect x="6.6" y="46.1" class="st0" width="2.7" height="2.7"/>
		<rect x="6.6" y="43.4" class="st0" width="2.7" height="2.7"/>
		<rect x="6.6" y="40.8" class="st0" width="2.7" height="2.7"/>
		<rect x="9.2" y="77.9" class="st0" width="2.7" height="2.7"/>
		<rect x="9.2" y="75.3" class="st0" width="2.7" height="2.7"/>
		<rect x="9.2" y="72.6" class="st0" width="2.7" height="2.7"/>
		<rect x="9.2" y="54" class="st0" width="2.7" height="2.6"/>
		<rect x="9.2" y="51.4" class="st0" width="2.7" height="2.7"/>
		<rect x="9.2" y="48.7" class="st0" width="2.7" height="2.7"/>
		<rect x="9.2" y="38.1" class="st0" width="2.7" height="2.7"/>
		<rect x="11.9" y="80.6" class="st0" width="2.7" height="2.7"/>
		<rect x="11.9" y="70" class="st0" width="2.7" height="2.6"/>
		<rect x="11.9" y="62" class="st0" width="2.7" height="2.6"/>
		<rect x="11.9" y="59.3" class="st0" width="2.7" height="2.7"/>
		<rect x="11.9" y="56.7" class="st0" width="2.7" height="2.6"/>
		<rect x="11.9" y="38.1" class="st0" width="2.7" height="2.7"/>
		<rect x="14.5" y="83.2" class="st0" width="2.7" height="2.7"/>
		<rect x="14.5" y="67.3" class="st0" width="2.7" height="2.7"/>
		<rect x="14.5" y="64.7" class="st0" width="2.7" height="2.6"/>
		<rect x="14.5" y="38.1" class="st0" width="2.7" height="2.7"/>
		<rect x="17.2" y="83.2" class="st0" width="2.7" height="2.7"/>
		<rect x="17.2" y="67.3" class="st0" width="2.7" height="2.7"/>
		<rect x="17.2" y="38.1" class="st0" width="2.7" height="2.7"/>
		<rect x="19.8" y="83.2" class="st0" width="2.7" height="2.7"/>
		<rect x="19.8" y="67.3" class="st0" width="2.7" height="2.7"/>
		<rect x="19.8" y="38.1" class="st0" width="2.7" height="2.7"/>
		<rect x="22.5" y="80.6" class="st0" width="2.7" height="2.7"/>
		<rect x="22.5" y="70" class="st0" width="2.7" height="2.6"/>
		<rect x="22.5" y="67.3" class="st0" width="2.7" height="2.7"/>
		<rect x="22.5" y="38.1" class="st0" width="2.7" height="2.7"/>
		<rect x="25.2" y="77.9" class="st0" width="2.6" height="2.7"/>
		<rect x="25.2" y="75.3" class="st0" width="2.6" height="2.7"/>
		<rect x="25.2" y="72.6" class="st0" width="2.6" height="2.7"/>
		<rect x="25.2" y="67.3" class="st0" width="2.6" height="2.7"/>
		<rect x="25.2" y="64.7" class="st0" width="2.6" height="2.6"/>
		<rect x="25.2" y="62" class="st0" width="2.6" height="2.6"/>
		<rect x="25.2" y="59.3" class="st0" width="2.6" height="2.7"/>
		<rect x="25.2" y="56.7" class="st0" width="2.6" height="2.6"/>
		<rect x="25.2" y="54" class="st0" width="2.6" height="2.6"/>
		<rect x="25.2" y="51.4" class="st0" width="2.6" height="2.7"/>
		<rect x="25.2" y="48.7" class="st0" width="2.6" height="2.7"/>
		<rect x="25.2" y="46.1" class="st0" width="2.6" height="2.7"/>
		<rect x="25.2" y="43.4" class="st0" width="2.6" height="2.7"/>
		<rect x="25.2" y="40.8" class="st0" width="2.6" height="2.7"/>
		<rect x="25.2" y="38.1" class="st0" width="2.6" height="2.7"/>
		<rect x="27.8" y="72.6" class="st0" width="2.6" height="2.7"/>
		<rect x="27.8" y="67.3" class="st0" width="2.6" height="2.7"/>
		<rect x="27.8" y="38.1" class="st0" width="2.6" height="2.7"/>
		<rect x="30.5" y="72.6" class="st0" width="2.6" height="2.7"/>
		<rect x="30.5" y="67.3" class="st0" width="2.6" height="2.7"/>
		<rect x="30.5" y="38.1" class="st0" width="2.6" height="2.7"/>
		<rect x="33.1" y="72.6" class="st0" width="2.7" height="2.7"/>
		<rect x="33.1" y="67.3" class="st0" width="2.7" height="2.7"/>
		<rect x="33.1" y="38.1" class="st0" width="2.7" height="2.7"/>
		<rect x="35.8" y="72.6" class="st0" width="2.6" height="2.7"/>
		<rect x="35.8" y="67.3" class="st0" width="2.6" height="2.7"/>
		<rect x="35.8" y="38.1" class="st0" width="2.6" height="2.7"/>
		<rect x="38.4" y="72.6" class="st0" width="2.6" height="2.7"/>
		<rect x="38.4" y="67.3" class="st0" width="2.6" height="2.7"/>
		<rect x="38.4" y="38.1" class="st0" width="2.6" height="2.7"/>
		<rect x="41.1" y="72.6" class="st0" width="2.7" height="2.7"/>
		<rect x="41.1" y="67.3" class="st0" width="2.7" height="2.7"/>
		<rect x="41.1" y="38.1" class="st0" width="2.7" height="2.7"/>
		<rect x="43.7" y="72.6" class="st0" width="2.7" height="2.7"/>
		<rect x="43.7" y="67.3" class="st0" width="2.7" height="2.7"/>
		<rect x="43.7" y="38.1" class="st0" width="2.7" height="2.7"/>
		<rect x="46.4" y="77.9" class="st0" width="2.7" height="2.7"/>
		<rect x="46.4" y="75.3" class="st0" width="2.7" height="2.7"/>
		<rect x="46.4" y="72.6" class="st0" width="2.7" height="2.7"/>
		<rect x="46.4" y="67.3" class="st0" width="2.7" height="2.7"/>
		<rect x="46.4" y="64.7" class="st0" width="2.7" height="2.6"/>
		<rect x="46.4" y="62" class="st0" width="2.7" height="2.6"/>
		<rect x="46.4" y="59.3" class="st0" width="2.7" height="2.7"/>
		<rect x="46.4" y="56.7" class="st0" width="2.7" height="2.6"/>
		<rect x="46.4" y="54" class="st0" width="2.7" height="2.6"/>
		<rect x="46.4" y="51.4" class="st0" width="2.7" height="2.7"/>
		<rect x="46.4" y="48.7" class="st0" width="2.7" height="2.7"/>
		<rect x="46.4" y="46.1" class="st0" width="2.7" height="2.7"/>
		<rect x="46.4" y="43.4" class="st0" width="2.7" height="2.7"/>
		<rect x="46.4" y="40.8" class="st0" width="2.7" height="2.7"/>
		<rect x="46.4" y="38.1" class="st0" width="2.7" height="2.7"/>
		<rect x="49" y="80.6" class="st0" width="2.7" height="2.7"/>
		<rect x="49" y="70" class="st0" width="2.7" height="2.6"/>
		<rect x="49" y="67.3" class="st0" width="2.7" height="2.7"/>
		<rect x="49" y="38.1" class="st0" width="2.7" height="2.7"/>
		<rect x="51.7" y="83.2" class="st0" width="2.7" height="2.7"/>
		<rect x="51.7" y="67.3" class="st0" width="2.7" height="2.7"/>
		<rect x="51.7" y="38.1" class="st0" width="2.7" height="2.7"/>
		<rect x="54.4" y="83.2" class="st0" width="2.7" height="2.7"/>
		<rect x="54.4" y="67.3" class="st0" width="2.7" height="2.7"/>
		<rect x="54.4" y="38.1" class="st0" width="2.7" height="2.7"/>
		<rect x="57" y="83.2" class="st0" width="2.7" height="2.7"/>
		<rect x="57" y="67.3" class="st0" width="2.7" height="2.7"/>
		<rect x="57" y="64.7" class="st0" width="2.7" height="2.6"/>
		<rect x="57" y="38.1" class="st0" width="2.7" height="2.7"/>
		<rect x="59.7" y="80.6" class="st0" width="2.7" height="2.7"/>
		<rect x="59.7" y="70" class="st0" width="2.7" height="2.6"/>
		<rect x="59.7" y="67.3" class="st0" width="2.7" height="2.7"/>
		<rect x="59.7" y="62" class="st0" width="2.7" height="2.6"/>
		<rect x="59.7" y="59.3" class="st0" width="2.7" height="2.7"/>
		<rect x="59.7" y="56.7" class="st0" width="2.7" height="2.6"/>
		<rect x="59.7" y="38.1" class="st0" width="2.7" height="2.7"/>
		<rect x="62.3" y="77.9" class="st0" width="2.7" height="2.7"/>
		<rect x="62.3" y="75.3" class="st0" width="2.7" height="2.7"/>
		<rect x="62.3" y="72.6" class="st0" width="2.7" height="2.7"/>
		<rect x="62.3" y="67.3" class="st0" width="2.7" height="2.7"/>
		<rect x="62.3" y="54" class="st0" width="2.7" height="2.6"/>
		<rect x="62.3" y="51.4" class="st0" width="2.7" height="2.7"/>
		<rect x="62.3" y="48.7" class="st0" width="2.7" height="2.7"/>
		<rect x="62.3" y="38.1" class="st0" width="2.7" height="2.7"/>
		<rect x="65" y="67.3" class="st0" width="2.7" height="2.7"/>
		<rect x="65" y="46.1" class="st0" width="2.7" height="2.7"/>
		<rect x="65" y="43.4" class="st0" width="2.7" height="2.7"/>
		<rect x="65" y="40.8" class="st0" width="2.7" height="2.7"/>
		<rect x="67.6" y="67.3" class="st0" width="2.7" height="2.7"/>
		<rect x="70.3" y="70" class="st0" width="2.6" height="2.6"/>
		<rect x="70.3" y="67.3" class="st0" width="2.6" height="2.7"/>
		<rect x="72.9" y="75.3" class="st0" width="2.7" height="2.7"/>
		<rect x="72.9" y="72.6" class="st0" width="2.7" height="2.7"/>
		<rect x="72.9" y="64.7" class="st0" width="2.7" height="2.6"/>
		<rect x="75.6" y="83.2" class="st0" width="2.7" height="2.7"/>
		<rect x="75.6" y="80.6" class="st0" width="2.7" height="2.7"/>
		<rect x="75.6" y="77.9" class="st0" width="2.7" height="2.7"/>
		<rect x="75.6" y="62" class="st0" width="2.7" height="2.6"/>
		<rect x="78.3" y="80.6" class="st0" width="2.7" height="2.7"/>
		<rect x="78.3" y="62" class="st0" width="2.7" height="2.6"/>
		<rect x="80.9" y="83.2" class="st0" width="2.7" height="2.7"/>
		<rect x="80.9" y="77.9" class="st0" width="2.7" height="2.7"/>
		<rect x="80.9" y="72.6" class="st0" width="2.7" height="2.7"/>
		<rect x="80.9" y="62" class="st0" width="2.7" height="2.6"/>
		<rect x="83.6" y="75.3" class="st0" width="2.7" height="2.7"/>
		<rect x="83.6" y="72.6" class="st0" width="2.7" height="2.7"/>
		<rect x="83.6" y="62" class="st0" width="2.7" height="2.6"/>
		<rect x="86.2" y="75.3" class="st0" width="2.7" height="2.7"/>
		<rect x="86.2" y="62" class="st0" width="2.7" height="2.6"/>
		<rect x="88.9" y="75.3" class="st0" width="2.7" height="2.7"/>
		<rect x="88.9" y="62" class="st0" width="2.7" height="2.6"/>
		<rect x="91.5" y="75.3" class="st0" width="2.7" height="2.7"/>
		<rect x="91.5" y="62" class="st0" width="2.7" height="2.6"/>
		<rect x="94.2" y="83.2" class="st0" width="2.7" height="2.7"/>
		<rect x="94.2" y="80.6" class="st0" width="2.7" height="2.7"/>
		<rect x="94.2" y="75.3" class="st0" width="2.7" height="2.7"/>
		<rect x="94.2" y="62" class="st0" width="2.7" height="2.6"/>
		<rect x="96.8" y="77.9" class="st0" width="2.7" height="2.7"/>
		<rect x="96.8" y="75.3" class="st0" width="2.7" height="2.7"/>
		<rect x="96.8" y="62" class="st0" width="2.7" height="2.6"/>
		<rect x="99.5" y="80.6" class="st0" width="2.7" height="2.7"/>
		<rect x="99.5" y="64.7" class="st0" width="2.7" height="2.6"/>
		<rect x="99.5" y="62" class="st0" width="2.7" height="2.6"/>
		<rect x="102.2" y="83.2" class="st0" width="2.7" height="2.7"/>
		<rect x="102.2" y="77.9" class="st0" width="2.7" height="2.7"/>
		<rect x="102.2" y="75.3" class="st0" width="2.7" height="2.7"/>
		<rect x="102.2" y="72.6" class="st0" width="2.7" height="2.7"/>
		<rect x="102.2" y="67.3" class="st0" width="2.7" height="2.7"/>
		<rect x="102.2" y="64.7" class="st0" width="2.7" height="2.6"/>
		<rect x="102.2" y="59.3" class="st0" width="2.7" height="2.7"/>
		<rect x="104.8" y="70" class="st0" width="2.7" height="2.6"/>
		<rect x="104.8" y="67.3" class="st0" width="2.7" height="2.7"/>
		<rect x="104.8" y="59.3" class="st0" width="2.7" height="2.7"/>
		<rect x="104.8" y="56.7" class="st0" width="2.7" height="2.6"/>
		<rect x="107.5" y="67.3" class="st0" width="2.7" height="2.7"/>
		<rect x="107.5" y="59.3" class="st0" width="2.7" height="2.7"/>
		<rect x="107.5" y="54" class="st0" width="2.7" height="2.6"/>
		<rect x="110.1" y="67.3" class="st0" width="2.7" height="2.7"/>
		<rect x="110.1" y="62" class="st0" width="2.7" height="2.6"/>
		<rect x="110.1" y="59.3" class="st0" width="2.7" height="2.7"/>
		<rect x="112.8" y="67.3" class="st0" width="2.7" height="2.7"/>
		<rect x="112.8" y="64.7" class="st0" width="2.7" height="2.6"/>
		<rect x="112.8" y="56.7" class="st0" width="2.7" height="2.6"/>
	</g>
</g>
</svg>
